<?xml version="1.0" encoding="utf-8"?>
<!-- Generator: Adobe Illustrator 26.0.3, SVG Export Plug-In . SVG Version: 6.00 Build 0)  -->
<svg version="1.1" id="레이어_1" xmlns="http://www.w3.org/2000/svg" xmlns:xlink="http://www.w3.org/1999/xlink" x="0px"
	 y="0px" viewBox="0 0 26.7 26.9" style="enable-background:new 0 0 26.7 26.9;" xml:space="preserve">
<style type="text/css">
	.st0{fill:#00ff0000;}
	.st1{fill:#FE5D01;}
</style>
<g id="f52790b3-b1ca-419d-96a3-ac5925563beb">
	<path id="ff3f2267-cbe8-4171-ae70-6c28d5ee6f46" class="st0" d="M15.1,26H3.7c-3.3,0-2.8,0-2.8-2.9c0-1.6,1.2-3,2.8-3.2v-7
		C3.6,9.5,5.6,6.4,8.8,5.2V5.1c0.1-2.4,2-4.3,4.4-4.2c2.4,0,4.3,1.8,4.4,4.2v0.1c3.3,1.1,5.5,4.3,5.4,7.8v7c1.6,0.2,2.8,1.6,2.8,3.2
		c0,2.8,0.4,2.9-2.8,2.9L15.1,26z"/>
	<path class="st1" d="M15.1,26.9H3.7c-1.8,0-2.6,0-3.2-0.6C0,25.7,0,25.1,0,24c0-0.3,0-0.5,0-0.9c0-1.8,1.2-3.3,2.8-3.9v-6.3
		C2.7,9.3,4.8,6,8,4.6C8.3,2,10.6-0.1,13.3,0c2.6,0,4.9,1.9,5.2,4.5c3.4,1.4,5.6,4.8,5.4,8.4v6.3c1.7,0.6,2.8,2.1,2.8,3.9
		c0,0.3,0,0.6,0,0.9c0,1,0,1.7-0.5,2.3c-0.6,0.6-1.4,0.6-3.2,0.6L15.1,26.9z M13.2,1.7c-1.9,0-3.4,1.5-3.5,3.4
		c0,0.4-0.2,0.7-0.6,0.9c-2.9,1-4.7,3.8-4.6,6.9v7c0,0.4-0.3,0.8-0.7,0.8c-1.2,0.2-2.1,1.2-2.1,2.4c0,0.3,0,0.6,0,0.9
		c0,0.4,0,0.7,0,1.1c0.1,0,1.1,0,2,0H23c0.7,0,1.4,0,2-0.1c0-0.3,0-0.7,0-1c0-0.3,0-0.6,0-0.9c0-1.2-0.9-2.2-2.1-2.4
		c-0.4-0.1-0.7-0.4-0.7-0.8v-7c0.1-3.1-1.8-6-4.8-7c-0.3-0.1-0.6-0.4-0.6-0.8c0-1.9-1.6-3.4-3.5-3.4C13.3,1.7,13.3,1.7,13.2,1.7
		L13.2,1.7z"/>
</g>
<g id="f04dabd0-293b-4948-8c1a-cba968bfdfab">
	<path id="f8f97131-d0fa-4a1d-bf50-deffcb1d11d3" class="st1" d="M13.2,8.5h0.4c0.4,0,0.7,0.3,0.8,0.7v7.5c0,0.4-0.3,0.7-0.8,0.7
		c0,0,0,0,0,0h-0.4c-0.4,0-0.7-0.3-0.8-0.7c0,0,0,0,0,0V9.2C12.4,8.8,12.8,8.5,13.2,8.5z"/>
	<path id="bfa00df5-aa5e-493a-8799-175db8e25fa9" class="st1" d="M13.1,19.9h0.5c0.4,0,0.7,0.3,0.7,0.7v0.5c0,0.4-0.3,0.7-0.7,0.7
		h-0.5c-0.4,0-0.7-0.3-0.7-0.7v-0.5C12.4,20.2,12.7,19.9,13.1,19.9z"/>
</g>
</svg>
