<?xml version="1.0" encoding="utf-8"?>
<!-- Generator: Adobe Illustrator 26.0.3, SVG Export Plug-In . SVG Version: 6.00 Build 0)  -->
<svg version="1.1" id="레이어_1" xmlns="http://www.w3.org/2000/svg" xmlns:xlink="http://www.w3.org/1999/xlink" x="0px"
	 y="0px" viewBox="0 0 24 24" style="enable-background:new 0 0 24 24;" xml:space="preserve">
<style type="text/css">
	.st0{fill:#FE5D01;}
</style>
<g id="a0fc6446-cc03-42c7-9d5d-03a229566a3a">
	<g id="b65a7dfe-437d-418d-a6a4-8e1f6dfa1167">
		<path class="st0" d="M2.9,23.9v-1.3c0,0,0-18.3,0-19.6V2.8c0-0.5,0.2-1,0.6-1.3s0.9-0.5,1.4-0.5H19c0.1,0,0.3,0,0.4,0
			c1,0.2,1.7,1.1,1.6,2.1V24l-9-4.6L2.9,23.9z M12,17.7l7.5,3.7V3c0-0.3-0.1-0.4-0.2-0.4h-0.1h-0.1H4.9c-0.1,0-0.2,0-0.2,0.1
			c-0.1,0-0.1,0.1-0.1,0.1c0,1.2,0,14.2,0,18.4L12,17.7z"/>
	</g>
</g>
</svg>
