<svg xmlns="http://www.w3.org/2000/svg" viewBox="0 0 25.822 25.856"><defs><style>.b09c845d-585f-496c-83b4-d3464f026310{fill:#00ff0000;}.a995c2f6-a96a-4d8c-958a-6a1fafea0f56{fill:#fe5d01;}</style></defs><g id="a10bb14a-c3e5-4f6b-8ec8-bb6d8f47def9" data-name="레이어 2"><g id="fe293f1b-6ce8-423f-a1b4-8e535a0de703" data-name="레이어 1"><g id="a287e457-025c-47de-abed-80503de5ab9a" data-name="그룹 39"><g id="a3f53d5b-243b-4e2d-be76-1cb4e11234c5" data-name="그룹 38"><g id="e561c246-a90e-4c3b-93f6-5ed6d9e0c7b6" data-name="그룹 37"><path id="b03b7f01-7a16-4752-94f8-964f3abc35f7" data-name="패스 6" class="b09c845d-585f-496c-83b4-d3464f026310" d="M18.306.846l6.668,6.669L7.48,25.009l-6.633,0V18.222Z"/><path class="a995c2f6-a96a-4d8c-958a-6a1fafea0f56" d="M7.481,25.856h0l-6.634,0A.847.847,0,0,1,0,25.007V18.222a.848.848,0,0,1,.25-.6L17.709.246a.848.848,0,0,1,1.2,0l6.668,6.667a.847.847,0,0,1,0,1.2L8.08,25.608A.846.846,0,0,1,7.481,25.856ZM1.7,24.159l5.435,0L23.777,7.514,18.305,2.043,1.7,18.574Z"/></g></g></g></g></g></svg>