<svg xmlns="http://www.w3.org/2000/svg" viewBox="0 0 30.906 26.195"><defs><style>.f225f427-3737-4283-ab70-c88263999fb2{fill:#00ff0000;}.acff7b8a-db73-42a8-ab00-3f8a60d83595{fill:#fe5d01;}</style></defs><g id="f5b8c098-46cc-48e7-821f-60f5c0a75964" data-name="레이어 2"><g id="fcab744b-3188-475b-a63f-38f7ea0d36a0" data-name="레이어 1"><g id="bb1823c2-7cb8-44f5-80f7-faca5d272abe" data-name="그룹 157"><g id="a01e2a91-13d0-4952-9216-c885ff68009b" data-name="구성 요소 6 1"><g id="e6bf9565-7d09-4bc3-93c5-dbab7dab93dc" data-name="패스 9"><path class="f225f427-3737-4283-ab70-c88263999fb2" d="M29.321,25.348H1.586a.733.733,0,0,1-.65-.368.646.646,0,0,1,.009-.664L14.812,1.2a.758.758,0,0,1,1.282,0L29.962,24.316a.646.646,0,0,1,.009.664A.736.736,0,0,1,29.321,25.348Z"/><path class="acff7b8a-db73-42a8-ab00-3f8a60d83595" d="M15.453,1.778,1.822,24.5H29.085L15.453,1.778m0-1.778a1.58,1.58,0,0,1,1.368.764L30.688,23.88A1.539,1.539,0,0,1,29.321,26.2H1.586A1.54,1.54,0,0,1,.218,23.88L14.086.764A1.577,1.577,0,0,1,15.453,0Z"/></g></g><g id="ad64cf4f-e016-47cc-9216-14c22e80cdf9" data-name="그룹 11"><path id="a435138b-f1c3-4264-9245-4cd9cebefa22" data-name="패스 20" class="acff7b8a-db73-42a8-ab00-3f8a60d83595" d="M15.286,10.2h.339a.677.677,0,0,1,.677.678v7.117a.677.677,0,0,1-.677.677h-.339a.677.677,0,0,1-.678-.677h0V10.875A.677.677,0,0,1,15.286,10.2Z"/><rect id="ba58445f-5543-4ba2-8406-7a72e38e6746" data-name="사각형 3" class="acff7b8a-db73-42a8-ab00-3f8a60d83595" x="14.608" y="20.364" width="1.695" height="1.695" rx="0.678"/></g></g></g></g></svg>