<svg id="ff5f9e4f-1aa0-4f57-ae98-7e3d569aee3c" data-name="Layer 1" xmlns="http://www.w3.org/2000/svg" viewBox="0 0 407.813 87.419"><defs><style>.a5a36ef1-614a-4d69-a3cc-ef450b271b7e{fill:#fff;}</style></defs><path class="a5a36ef1-614a-4d69-a3cc-ef450b271b7e" d="M74.494,99.74,56.785,16.112h-27.6L9.131,99.74H32.388l1.879-10.768H49.46L51.118,99.74ZM37.271,71.218l3.107-19.411c.877-5.216,1.43-10.533,2.093-15.737h.236c.553,5.2.98,10.521,1.658,15.737l2.419,19.411Z" transform="translate(-9.131 -13.747)"/><path class="a5a36ef1-614a-4d69-a3cc-ef450b271b7e" d="M99.305,42.831V72.652c0,7.006.455,10.116,4.213,10.116,3.87,0,4.3-3,4.3-10.116V42.831h21.744V75.669c0,17.312-10.093,25.285-26.048,25.285-16.845,0-25.948-9.323-25.948-25.285V42.831Z" transform="translate(-9.131 -13.747)"/><path class="a5a36ef1-614a-4d69-a3cc-ef450b271b7e" d="M273.344,99.745V69.808c0-7-.434-10.088-4.207-10.088-3.87,0-4.313,2.98-4.313,10.088V99.745H243.09V66.814c0-17.311,10.1-25.3,26.047-25.3,16.86,0,25.942,9.33,25.942,25.3V99.745Z" transform="translate(-9.131 -13.747)"/><polygon class="a5a36ef1-614a-4d69-a3cc-ef450b271b7e" points="137.436 85.997 137.436 46.551 128.953 46.551 128.953 29.142 137.436 29.142 137.436 13.848 159.159 13.848 159.159 29.142 167.498 29.142 167.498 46.551 159.159 46.551 159.159 85.997 137.436 85.997"/><path class="a5a36ef1-614a-4d69-a3cc-ef450b271b7e" d="M208.565,39.935c-18.754,0-27.263,14.109-27.263,30.506,0,16.423,8.509,30.517,27.263,30.517,18.727,0,27.245-14.094,27.245-30.517,0-16.4-8.518-30.506-27.245-30.506m0,17.617c7.6,0,8.758,7.461,8.758,12.889,0,5.448-1.155,12.914-8.758,12.914-7.634,0-8.757-7.466-8.757-12.914,0-5.428,1.123-12.889,8.757-12.889" transform="translate(-9.131 -13.747)"/><rect class="a5a36ef1-614a-4d69-a3cc-ef450b271b7e" x="294.019" y="29.145" width="21.732" height="56.853"/><path class="a5a36ef1-614a-4d69-a3cc-ef450b271b7e" d="M302.326,25.433a11.748,11.748,0,1,1,11.8,11.8,11.733,11.733,0,0,1-11.8-11.8" transform="translate(-9.131 -13.747)"/><path class="a5a36ef1-614a-4d69-a3cc-ef450b271b7e" d="M368.3,99.658C352.2,102.53,331.048,97,331.048,70.226c0-27.395,23.24-33.016,37.243-29.31V60.368c-6.557-1.968-15.446-.992-15.446,9.425,0,7.135,7.142,10.614,15.446,9.824Z" transform="translate(-9.131 -13.747)"/><path class="a5a36ef1-614a-4d69-a3cc-ef450b271b7e" d="M375.487,79.779c7.187,3.058,17.085,3.637,17.085-.778,0-5.976-17.139-5.984-17.139-22.795,0-16.1,22.177-20.8,41.329-14.964l-.075,15.724c-7.741-2.384-16.243-2.021-16.243,1.517,0,7.958,16.5,6.051,16.5,22.35,0,17.538-20.059,24.8-41.457,17.538Z" transform="translate(-9.131 -13.747)"/></svg>