<?xml version="1.0" encoding="utf-8"?>
<!-- Generator: Adobe Illustrator 26.0.3, SVG Export Plug-In . SVG Version: 6.00 Build 0)  -->
<svg version="1.1" id="레이어_1" xmlns="http://www.w3.org/2000/svg" xmlns:xlink="http://www.w3.org/1999/xlink" x="0px"
	 y="0px" viewBox="0 0 25.8 25.9" style="enable-background:new 0 0 25.8 25.9;" xml:space="preserve">
<style type="text/css">
	.st0{fill:none;}
	.st1{fill:#FE5D01;}
</style>
<g id="a10bb14a-c3e5-4f6b-8ec8-bb6d8f47def9">
	<g id="fe293f1b-6ce8-423f-a1b4-8e535a0de703">
		<g id="a287e457-025c-47de-abed-80503de5ab9a">
			<g id="a3f53d5b-243b-4e2d-be76-1cb4e11234c5">
				<g id="e561c246-a90e-4c3b-93f6-5ed6d9e0c7b6">
					<path id="b03b7f01-7a16-4752-94f8-964f3abc35f7" class="st0" d="M18.3,0.8L25,7.5L7.5,25H0.8v-6.8L18.3,0.8z"/>
					<path class="st1" d="M7.5,25.9L7.5,25.9H0.8C0.4,25.9,0,25.5,0,25c0,0,0,0,0,0v-6.8c0-0.2,0.1-0.4,0.2-0.6L17.7,0.2
						c0.3-0.3,0.9-0.3,1.2,0c0,0,0,0,0,0l6.7,6.7c0.3,0.3,0.3,0.9,0,1.2c0,0,0,0,0,0L8.1,25.6C7.9,25.8,7.7,25.9,7.5,25.9z
						 M1.7,24.2h5.4L23.8,7.5L18.3,2L1.7,18.6V24.2z"/>
				</g>
			</g>
		</g>
	</g>
</g>
</svg>
