<?xml version="1.0" encoding="utf-8"?>
<!-- Generator: Adobe Illustrator 26.0.3, SVG Export Plug-In . SVG Version: 6.00 Build 0)  -->
<svg version="1.1" id="레이어_1" xmlns="http://www.w3.org/2000/svg" xmlns:xlink="http://www.w3.org/1999/xlink" x="0px"
	 y="0px" viewBox="0 0 127.4 115.8" style="enable-background:new 0 0 127.4 115.8;" xml:space="preserve">
<style type="text/css">
	.st0{fill:none;}
	.st1{fill:#FE5D01;}
	.st2{fill:#FFFFFF;}
</style>
<g id="a60c1dfb-c0a5-4684-9dca-5aaec6413035">
	<g id="eacc38fc-a1bd-4d42-af16-2c9c9a2065ca">
		<g id="fd2a5cde-2311-4075-a4cb-f8a92d9126b6">
			<g id="a8c57424-2d69-41c0-a85d-5396d2fdeefc">
				<path class="st0" d="M27.1,32V1.9h73.1v29.7L27.1,32z"/>
				<path class="st1" d="M29.1,3.9v26.2l69.2-0.3V3.9H29.1 M26.6,0h74.3c0.8,0,1.4,0.7,1.4,1.5v32.1l-77,0.4V1.5
					C25.2,0.7,25.8,0,26.6,0z"/>
			</g>
			<g id="a5a90900-1a3b-4b3f-bd00-5776ae0b79a3">
				<path class="st0" d="M125.4,92H1.9V34c0-1.7,1.4-3,3.1-3h117.4c1.7,0,3,1.4,3,3V92z"/>
				<path class="st1" d="M5,32.9c-0.6,0-1.1,0.5-1.1,1.1v56h119.6V34c0-0.6-0.5-1.1-1.1-1.1H5 M5,29h117.4c2.8,0,5,2.2,5,5v59.3
					c0,0.3-0.3,0.6-0.6,0.6l0,0H0.6c-0.3,0-0.6-0.3-0.6-0.6l0,0V34C0,31.2,2.2,29,5,29z"/>
			</g>
			<g id="eeb7c8cd-764d-4be3-9897-2f0ce6bf2e47">
				<path class="st2" d="M100.4,113.9H26.9V75.6h73.5V113.9z"/>
				<path class="st1" d="M28.9,77.5v34.4h69.6V77.5H28.9 M25,73.6h77.4v41.5c0,0.3-0.3,0.6-0.6,0.6l0,0H25.6c-0.3,0-0.6-0.3-0.6-0.6
					l0,0V73.6z"/>
			</g>
			<rect x="20.3" y="73.6" class="st1" width="86.1" height="3.9"/>
			<g id="b5fb197c-5d18-4e1e-97bd-04ef0c56a70f">
				<path class="st0" d="M111.1,56.9h-6.5c-1.6,0-2.9-1.3-2.9-2.9v-6.5c0-1.6,1.3-2.9,2.9-2.9h6.5c1.6,0,2.9,1.3,2.9,2.9V54
					C114.1,55.6,112.7,56.9,111.1,56.9z"/>
				<path class="st1" d="M104.6,46.5c-0.5,0-1,0.4-1,1V54c0,0.5,0.4,1,1,1h6.5c0.5,0,1-0.4,1-1v-6.5c0-0.5-0.4-1-1-1H104.6
					 M104.6,42.6h6.5c2.7,0,4.9,2.2,4.9,4.9V54c0,2.7-2.2,4.9-4.9,4.9h-6.5c-2.7,0-4.9-2.2-4.9-4.9l0,0v-6.5
					C99.7,44.7,101.9,42.6,104.6,42.6L104.6,42.6L104.6,42.6z"/>
			</g>
			<rect x="38.9" y="87.2" class="st1" width="48.4" height="3.9"/>
			<rect x="38.9" y="98.4" class="st1" width="48.4" height="3.9"/>
		</g>
	</g>
</g>
</svg>
