<?xml version="1.0" encoding="utf-8"?>
<!-- Generator: Adobe Illustrator 26.0.3, SVG Export Plug-In . SVG Version: 6.00 Build 0)  -->
<svg version="1.1" id="레이어_1" xmlns="http://www.w3.org/2000/svg" xmlns:xlink="http://www.w3.org/1999/xlink" x="0px"
	 y="0px" viewBox="0 0 30.9 26.2" style="enable-background:new 0 0 30.9 26.2;" xml:space="preserve">
<style type="text/css">
	.st0{fill:none;}
	.st1{fill:#FE5D01;}
</style>
<g id="f5b8c098-46cc-48e7-821f-60f5c0a75964">
	<g id="fcab744b-3188-475b-a63f-38f7ea0d36a0">
		<g id="bb1823c2-7cb8-44f5-80f7-faca5d272abe">
			<g id="a01e2a91-13d0-4952-9216-c885ff68009b">
				<g id="e6bf9565-7d09-4bc3-93c5-dbab7dab93dc">
					<path class="st0" d="M29.3,25.3H1.6c-0.3,0-0.5-0.1-0.6-0.4c-0.1-0.2-0.1-0.5,0-0.7L14.8,1.2c0.2-0.4,0.7-0.5,1-0.2
						C16,1,16,1.1,16.1,1.2L30,24.3c0.1,0.2,0.1,0.5,0,0.7C29.8,25.2,29.6,25.4,29.3,25.3z"/>
					<path class="st1" d="M15.5,1.8L1.8,24.5h27.3L15.5,1.8 M15.5,0c0.6,0,1.1,0.3,1.4,0.8l13.9,23.1c0.4,0.7,0.2,1.7-0.5,2.1
						c-0.2,0.1-0.5,0.2-0.8,0.2H1.6c-0.9,0-1.6-0.6-1.6-1.5c0-0.3,0.1-0.6,0.2-0.8L14.1,0.8C14.4,0.3,14.9,0,15.5,0z"/>
				</g>
			</g>
			<g id="ad64cf4f-e016-47cc-9216-14c22e80cdf9">
				<path id="a435138b-f1c3-4264-9245-4cd9cebefa22" class="st1" d="M15.3,10.2h0.3c0.4,0,0.7,0.3,0.7,0.7c0,0,0,0,0,0V18
					c0,0.4-0.3,0.7-0.7,0.7l0,0h-0.3c-0.4,0-0.7-0.3-0.7-0.7c0,0,0,0,0,0l0,0v-7.1C14.6,10.5,14.9,10.2,15.3,10.2z"/>
				<path id="ba58445f-5543-4ba2-8406-7a72e38e6746" class="st1" d="M15.3,20.4h0.3c0.4,0,0.7,0.3,0.7,0.7v0.3
					c0,0.4-0.3,0.7-0.7,0.7h-0.3c-0.4,0-0.7-0.3-0.7-0.7V21C14.6,20.7,14.9,20.4,15.3,20.4z"/>
			</g>
		</g>
	</g>
</g>
</svg>
