<?xml version="1.0" encoding="utf-8"?>
<!-- Generator: Adobe Illustrator 26.0.1, SVG Export Plug-In . SVG Version: 6.00 Build 0)  -->
<svg version="1.0" id="레이어_1" xmlns="http://www.w3.org/2000/svg" xmlns:xlink="http://www.w3.org/1999/xlink" x="0px"
	 y="0px" viewBox="0 0 40 40" style="enable-background:new 0 0 40 40;" xml:space="preserve">
<style type="text/css">
	.st0{fill:#3F434B;}
	.st1{fill:none;stroke:#FFFFFF;stroke-width:1.5;}
</style>
<path id="body" class="st0" d="M10,0h20c5.5,0,10,4.5,10,10v20c0,5.5-4.5,10-10,10H10C4.5,40,0,35.5,0,30V10C0,4.5,4.5,0,10,0z"/>
<g id="icon" transform="translate(13 12)">
	<path id="패스_2865" class="st1" d="M5.6,4.1V1.5c0,0-0.1-1.5,1.1-1.5h6.5c0,0,1.1,0.1,1.1,1.5v9.1c0,0.6-0.4,1.1-1,1.2
		c0,0-0.1,0-0.1,0H9.1"/>
	<g id="사각형_15859" transform="translate(0 4)">
		<path class="st1" d="M1,0h8c0.6,0,1,0.4,1,1v10c0,0.6-0.4,1-1,1H1c-0.6,0-1-0.4-1-1V1C0,0.4,0.4,0,1,0z"/>
		<path class="st1" d="M1,0.8h8c0.1,0,0.2,0.1,0.2,0.2v10c0,0.1-0.1,0.2-0.2,0.2H1c-0.1,0-0.2-0.1-0.2-0.2V1C0.8,0.9,0.9,0.8,1,0.8z
			"/>
	</g>
</g>
</svg>
