<?xml version="1.0" encoding="utf-8"?>
<!-- Generator: Adobe Illustrator 26.0.1, SVG Export Plug-In . SVG Version: 6.00 Build 0)  -->
<svg version="1.0" id="레이어_1" xmlns="http://www.w3.org/2000/svg" xmlns:xlink="http://www.w3.org/1999/xlink" x="0px"
	 y="0px" viewBox="0 0 40 40" style="enable-background:new 0 0 40 40;" xml:space="preserve">
<style type="text/css">
	.st0{fill:#3F434B;}
	.st1{fill:#FFFFFF;}
</style>
<g id="그룹_5395">
	<path id="사각형_15357" class="st0" d="M10,0h20c5.5,0,10,4.5,10,10v20c0,5.5-4.5,10-10,10H10C4.5,40,0,35.5,0,30V10
		C0,4.5,4.5,0,10,0z"/>
	<g id="script" transform="translate(933 438)">
		<path id="패스_2033" class="st1" d="M-911.5-411.1l1.7-1.7l-0.9-0.9l-2.7,2.7l2.7,2.7l0.9-0.9L-911.5-411.1z"/>
		<path id="패스_2034" class="st1" d="M-906-411.1l-1.7,1.7l0.9,0.9l2.7-2.7l-2.7-2.6l-0.9,0.9L-906-411.1z"/>
		<path id="패스_2035" class="st1" d="M-914.7-409.8h-4v-15.9h5.3v4c0,0.7,0.6,1.3,1.3,1.3h4v4h1.3v-5.3c0-0.2-0.1-0.3-0.2-0.5
			l-4.6-4.6c-0.1-0.1-0.3-0.2-0.5-0.2h-6.6c-0.7,0-1.3,0.6-1.3,1.3v15.9c0,0.7,0.6,1.3,1.3,1.3h4L-914.7-409.8z M-912-425.4l3.7,3.7
			h-3.7V-425.4z"/>
	</g>
</g>
</svg>
