<?xml version="1.0" encoding="utf-8"?>
<!-- Generator: Adobe Illustrator 26.0.1, SVG Export Plug-In . SVG Version: 6.00 Build 0)  -->
<svg version="1.0" id="레이어_1" xmlns="http://www.w3.org/2000/svg" xmlns:xlink="http://www.w3.org/1999/xlink" x="0px"
	 y="0px" viewBox="0 0 34 32" style="enable-background:new 0 0 34 32;" xml:space="preserve">
<style type="text/css">
	.st0{fill:none;}
	.st1{fill:none;stroke:#000000;stroke-width:1.5;}
	.st2{fill:none;stroke:#000000;}
	.st3{fill:none;stroke:#000000;stroke-width:1.5;stroke-linecap:round;}
	.st4{fill:#D5D5D5;}
	.st5{fill:#FF3636;}
	.st6{fill:#FFFFFF;}
	.st7{fill:#E6F2FF;}
</style>
<g id="그룹_6201" transform="translate(188 76)">
	<g id="그룹_6199" transform="translate(169.444 57)">
		<g id="그룹_6198" transform="translate(530.415 186.786)">
			<g id="그룹_6197" transform="translate(444 455.672)">
				<g id="사각형_15764">
					<path class="st0" d="M-1323-768h13.5c1.1,0,2,0.9,2,2v13.5c0,1.1-0.9,2-2,2h-13.5c-1.1,0-2-0.9-2-2V-766
						C-1325-767.1-1324.1-768-1323-768z"/>
					<path class="st1" d="M-1323-767.2h13.5c0.7,0,1.2,0.6,1.2,1.2v13.5c0,0.7-0.6,1.2-1.2,1.2h-13.5c-0.7,0-1.2-0.6-1.2-1.2V-766
						C-1324.2-766.7-1323.7-767.2-1323-767.2z"/>
				</g>
				<path id="선_636" class="st2" d="M-1324.6-763.2h16.6"/>
			</g>
			<path id="선_637" class="st3" d="M-876.2-312.8v2.6"/>
			<path id="선_638" class="st3" d="M-868.3-312.8v2.6"/>
		</g>
		<path id="사각형_15765" class="st4" d="M-347-119h1v1h-1V-119z"/>
		<path id="사각형_15766" class="st4" d="M-347-117h1v1h-1V-117z"/>
		<path id="사각형_15767" class="st4" d="M-347-113h1v1h-1V-113z"/>
		<path id="사각형_15768" class="st4" d="M-345-119h1v1h-1V-119z"/>
		<path id="사각형_15769" class="st4" d="M-345-117h1v1h-1V-117z"/>
		<path id="사각형_15770" class="st4" d="M-345-113h1v1h-1V-113z"/>
		<path id="사각형_15771" class="st4" d="M-343-113h1v1h-1V-113z"/>
		<path id="사각형_15772" class="st4" d="M-341-119h1v1h-1V-119z"/>
		<path id="사각형_15773" class="st4" d="M-339-119h1v1h-1V-119z"/>
		<path id="사각형_15774" class="st4" d="M-337-119h1v1h-1V-119z"/>
		<path id="사각형_15775" class="st4" d="M-341-117h1v1h-1V-117z"/>
		<path id="사각형_15776" class="st4" d="M-339-117h1v1h-1V-117z"/>
		<path id="사각형_15777" class="st4" d="M-337-117h1v1h-1V-117z"/>
		<path id="사각형_15778" class="st4" d="M-341-115h1v1h-1V-115z"/>
		<path id="사각형_15779" class="st4" d="M-341-113h1v1h-1V-113z"/>
		<path id="사각형_15780" class="st5" d="M-347-119h4v4h-4V-119z"/>
		<path id="사각형_15781" class="st4" d="M-339-115h1v1h-1V-115z"/>
		<path id="사각형_15782" class="st4" d="M-339-113h1v1h-1V-113z"/>
	</g>
	<circle id="타원_649" class="st6" cx="-164.5" cy="-54.5" r="5.5"/>
	<g id="그룹_6200" transform="translate(1)">
		<path id="cog" d="M-164-54.5c0-0.8-0.7-1.5-1.5-1.5c-0.8,0-1.5,0.7-1.5,1.5c0,0.8,0.7,1.5,1.5,1.5C-164.7-53-164-53.7-164-54.5z
			 M-160.9-55.1v1.3c0,0,0,0.1,0,0.1c0,0-0.1,0.1-0.1,0.1l-1.1,0.2c-0.1,0.2-0.1,0.4-0.2,0.5c0.1,0.2,0.4,0.5,0.6,0.8
			c0,0,0.1,0.1,0.1,0.1c0,0.1,0,0.1-0.1,0.1c-0.2,0.2-0.4,0.4-0.6,0.6c-0.3,0.3-0.5,0.4-0.6,0.4c-0.1,0-0.1,0-0.2-0.1l-0.8-0.6
			c-0.2,0.1-0.4,0.2-0.5,0.2c0,0.4-0.1,0.7-0.2,1.1c0,0.1-0.1,0.2-0.2,0.2h-1.3c-0.1,0-0.1,0-0.1,0c0,0-0.1-0.1-0.1-0.1l-0.2-1.1
			c-0.2-0.1-0.4-0.1-0.5-0.2l-0.8,0.6c0,0-0.1,0.1-0.1,0.1c-0.1,0-0.1,0-0.1-0.1c-0.4-0.3-0.7-0.6-1-1c0,0,0-0.1,0-0.1
			c0,0,0-0.1,0-0.1c0.1-0.1,0.2-0.2,0.3-0.4s0.2-0.3,0.3-0.4c-0.1-0.2-0.2-0.4-0.2-0.6l-1.1-0.2c0,0-0.1,0-0.1-0.1c0,0,0-0.1,0-0.1
			v-1.3c0,0,0-0.1,0-0.1c0,0,0.1-0.1,0.1-0.1l1.1-0.2c0.1-0.2,0.1-0.4,0.2-0.5c-0.2-0.2-0.4-0.5-0.6-0.8c0,0-0.1-0.1-0.1-0.1
			c0,0,0-0.1,0.1-0.1c0.2-0.2,0.4-0.4,0.6-0.6c0.3-0.3,0.5-0.4,0.6-0.4c0.1,0,0.1,0,0.2,0.1l0.8,0.6c0.2-0.1,0.4-0.2,0.5-0.2
			c0-0.4,0.1-0.7,0.2-1.1c0-0.1,0.1-0.2,0.2-0.2h1.3c0.1,0,0.1,0,0.1,0c0,0,0.1,0.1,0.1,0.1l0.2,1.1c0.2,0.1,0.4,0.1,0.5,0.2
			l0.8-0.6c0,0,0.1-0.1,0.1-0.1c0.1,0,0.1,0,0.1,0.1c0.4,0.3,0.7,0.6,1,1c0,0,0,0.1,0,0.1c0,0,0,0.1,0,0.1c-0.1,0.1-0.2,0.2-0.3,0.4
			c-0.1,0.2-0.2,0.3-0.3,0.4c0.1,0.2,0.2,0.4,0.2,0.6l1.1,0.2c0,0,0.1,0,0.1,0.1C-161-55.2-160.9-55.2-160.9-55.1L-160.9-55.1z"/>
		<circle id="타원_650" class="st7" cx="-165.5" cy="-54.5" r="1.5"/>
	</g>
</g>
</svg>
