<?xml version="1.0" encoding="utf-8"?>
<!-- Generator: Adobe Illustrator 26.0.1, SVG Export Plug-In . SVG Version: 6.00 Build 0)  -->
<svg version="1.0" id="레이어_1" xmlns="http://www.w3.org/2000/svg" xmlns:xlink="http://www.w3.org/1999/xlink" x="0px"
	 y="0px" viewBox="0 0 40 40" style="enable-background:new 0 0 40 40;" xml:space="preserve">
<style type="text/css">
	.st0{fill:#3F434B;}
	.st1{fill:#FFFFFF;}
</style>
<path id="body" class="st0" d="M10,0h20c5.5,0,10,4.5,10,10v20c0,5.5-4.5,10-10,10H10C4.5,40,0,35.5,0,30V10C0,4.5,4.5,0,10,0z"/>
<g id="icon" transform="translate(1448 443)">
	<path id="패스_2872" class="st1" d="M-1418.4-421.4v-1.3h-4v6.6h1.3v-2.7h2v-1.3h-2v-1.3H-1418.4z"/>
	<path id="패스_2873" class="st1" d="M-1425.7-416.1h-2.7v-6.6h2.7c1.1,0,2,0.9,2,2v2.7C-1423.7-417-1424.6-416.1-1425.7-416.1z
		 M-1427.1-417.4h1.3c0.4,0,0.7-0.3,0.7-0.7v-2.7c0-0.4-0.3-0.7-0.7-0.7h-1.3V-417.4z"/>
	<path id="패스_2874" class="st1" d="M-1431-422.7h-3.3v6.6h1.3v-2h2c0.7,0,1.3-0.6,1.3-1.3v-2
		C-1429.7-422.1-1430.3-422.7-1431-422.7z M-1433-419.4v-2h2v2H-1433z"/>
	<path id="패스_2875" class="st1" d="M-1423.7-424v-2.7c0-0.2-0.1-0.3-0.2-0.5l-4.6-4.6c-0.1-0.1-0.3-0.2-0.5-0.2h-6.6
		c-0.7,0-1.3,0.6-1.3,1.3v15.9c0,0.7,0.6,1.3,1.3,1.3h10.6v-1.3h-10.6v-15.9h5.3v4c0,0.7,0.6,1.3,1.3,1.3h4v1.3L-1423.7-424z
		 M-1429-426.7v-3.7l3.7,3.7H-1429z"/>
</g>
</svg>
