<?xml version="1.0" encoding="utf-8"?>
<!-- Generator: Adobe Illustrator 26.0.1, SVG Export Plug-In . SVG Version: 6.00 Build 0)  -->
<svg version="1.0" id="레이어_1" xmlns="http://www.w3.org/2000/svg" xmlns:xlink="http://www.w3.org/1999/xlink" x="0px"
	 y="0px" viewBox="0 0 40 40" style="enable-background:new 0 0 40 40;" xml:space="preserve">
<style type="text/css">
	.st0{fill:#3F434B;}
	.st1{fill:#FFFFFF;}
</style>
<g id="그룹_5407">
	<path id="사각형_15369" class="st0" d="M10,0h20c5.5,0,10,4.5,10,10v20c0,5.5-4.5,10-10,10H10C4.5,40,0,35.5,0,30V10
		C0,4.5,4.5,0,10,0z"/>
	<path id="printer" class="st1" d="M28.6,15.3h-2.1V11H13.6v4.3h-2.1c-0.8,0-1.4,0.6-1.4,1.4v7.1c0,0.8,0.6,1.4,1.4,1.4c0,0,0,0,0,0
		h2.1v4.3h12.9v-4.3h2.1c0.8,0,1.4-0.6,1.4-1.4v0v-7.1C30,15.9,29.4,15.3,28.6,15.3L28.6,15.3z M15,12.4h10v2.9H15V12.4z M25,28.1
		H15V21h10V28.1z M28.6,23.9h-2.1v-4.3H13.6v4.3h-2.1v-7.1h17.1V23.9z"/>
</g>
</svg>
