<?xml version="1.0" encoding="utf-8"?>
<!-- Generator: Adobe Illustrator 26.0.1, SVG Export Plug-In . SVG Version: 6.00 Build 0)  -->
<svg version="1.0" id="레이어_1" xmlns="http://www.w3.org/2000/svg" xmlns:xlink="http://www.w3.org/1999/xlink" x="0px"
	 y="0px" viewBox="0 0 34 32" style="enable-background:new 0 0 34 32;" xml:space="preserve">
<style type="text/css">
	.st0{fill:#FFFFFF;}
	.st1{fill:none;stroke:#000000;stroke-width:1.6;}
</style>
<g id="마스크_그룹_378" transform="translate(0 51)">
	<g id="add_Recipe" transform="translate(1628.281 390.932)">
		<g id="_5" transform="translate(-11.281 -7.174)">
			<path id="패스_2464" d="M-1597.1-428h-10.5c-0.6,0-1.2,0.5-1.2,1.2l0,0v2.3h-1.2v1.2h1.2v2.9h-1.2v1.2h1.2v2.9h-1.2v1.2h1.2
				v2.3c0,0.6,0.5,1.2,1.2,1.2h10.5c0.6,0,1.2-0.5,1.2-1.2v-14.1C-1595.9-427.5-1596.5-428-1597.1-428z M-1597.1-412.8h-10.5v-2.3
				h1.2v-1.2h-1.2v-2.9h1.2v-1.2h-1.2v-2.9h1.2v-1.2h-1.2v-2.3h10.5V-412.8z"/>
			<path id="패스_2465" d="M-1604.1-424.5h4.7v1.2h-4.7V-424.5z"/>
			<path id="패스_2466" d="M-1604.1-420.4h4.7v1.2h-4.7V-420.4z"/>
			<path id="패스_2467" d="M-1604.1-416.3h4.7v1.2h-4.7V-416.3z"/>
		</g>
		<path id="사각형_14560" class="st0" d="M-1611-428.9h13v13h-13V-428.9z"/>
		<path id="선_493" class="st1" d="M-1610-422.4h11.2"/>
		<path id="선_494" class="st1" d="M-1604.4-428v11.2"/>
	</g>
</g>
</svg>
