<?xml version="1.0" encoding="utf-8"?>
<!-- Generator: Adobe Illustrator 26.0.1, SVG Export Plug-In . SVG Version: 6.00 Build 0)  -->
<svg version="1.0" id="레이어_1" xmlns="http://www.w3.org/2000/svg" xmlns:xlink="http://www.w3.org/1999/xlink" x="0px"
	 y="0px" viewBox="0 0 40 40" style="enable-background:new 0 0 40 40;" xml:space="preserve">
<style type="text/css">
	.st0{fill:#3F434B;}
	.st1{clip-path:url(#SVGID_00000041985692759567254040000014600183840985811896_);}
	.st2{fill:#FFFFFF;}
	.st3{fill:#D5D5D5;}
	.st4{fill:#FFFFFF;stroke:#FFFFFF;stroke-width:0.8;}
</style>
<path id="body" class="st0" d="M10,0h20c5.5,0,10,4.5,10,10v20c0,5.5-4.5,10-10,10H10C4.5,40,0,35.5,0,30V10C0,4.5,4.5,0,10,0z"/>
<g>
	<defs>
		<polygon id="SVGID_1_" points="23.3,30 23.3,25.1 25,22.1 26.8,21 28.5,21 31.7,15.9 28.5,10.9 15.7,8.1 6.8,10.9 4.7,25.1 
			7.7,34.7 18.7,32.1 		"/>
	</defs>
	<clipPath id="SVGID_00000171714357008043548290000001577948126112525759_">
		<use xlink:href="#SVGID_1_"  style="overflow:visible;"/>
	</clipPath>
	<g id="마스크_그룹_390" style="clip-path:url(#SVGID_00000171714357008043548290000001577948126112525759_);">
		<path id="save" class="st2" d="M27.8,15L24,11.2c-0.1-0.1-0.3-0.2-0.5-0.2h-12c-0.8,0-1.5,0.7-1.5,1.5v15c0,0.8,0.7,1.5,1.5,1.5
			h15c0.8,0,1.5-0.7,1.5-1.5v-12C28,15.3,27.9,15.1,27.8,15z M16,12.5h6v3h-6V12.5z M22,27.5h-6v-6h6V27.5z M23.5,27.5v-6
			c0-0.8-0.7-1.5-1.5-1.5h-6c-0.8,0-1.5,0.7-1.5,1.5v6h-3v-15h3v3c0,0.8,0.7,1.5,1.5,1.5h6c0.8,0,1.5-0.7,1.5-1.5v-2.7l3,3v11.7
			H23.5z"/>
	</g>
</g>
<g id="reset_icon" transform="translate(19.411 15.701)">
	<g id="reset">
		<path class="st3" d="M8.9,16.5h-1v-2.9h1c2,0,3.6-1.6,3.6-3.6s-1.6-3.6-3.6-3.6S5.3,8,5.3,10v0.4L6,9.8l0.7,0.7l0.6,0.6L8,11.8
			l-0.7,0.7l-2.8,2.8L3.9,16l-0.7-0.7l-2.8-2.8l-0.7-0.7l0.7-0.7l0.6-0.6l0.7-0.7l0.6,0.6V10c0-3.6,2.9-6.5,6.5-6.5s6.5,2.9,6.5,6.5
			S12.5,16.5,8.9,16.5z"/>
		<path class="st0" d="M8.9,15.5c3,0,5.5-2.5,5.5-5.5S12,4.5,8.9,4.5c-3,0-5.5,2.5-5.5,5.5v2.8l-1.6-1.6l-0.6,0.6l2.8,2.8l2.8-2.8
			L6,11.2l-1.7,1.6V10c0-2.5,2.1-4.6,4.6-4.6c2.5,0,4.6,2.1,4.6,4.6s-2.1,4.6-4.6,4.6V15.5 M8.9,17.5h-2v-3.1L5.3,16l-1.4,1.4
			L2.5,16l-2.8-2.8l-1.4-1.4l1.4-1.4l0.6-0.6l1.2-1.2c0.7-3.5,3.7-6.1,7.4-6.1c4.1,0,7.5,3.4,7.5,7.5C16.4,14.1,13.1,17.5,8.9,17.5z
			 M8.7,12.6h0.2c1.4,0,2.6-1.2,2.6-2.6c0-1.4-1.2-2.6-2.6-2.6c-1,0-2,0.6-2.4,1.5l0.8,0.8L8,10.4l1.4,1.4
			C9.5,11.8,8.7,12.6,8.7,12.6z"/>
	</g>
	<path id="reset-2" class="st4" d="M8.9,15.5c3,0,5.5-2.5,5.5-5.5S12,4.5,8.9,4.5S3.4,7,3.4,10v2.8l-1.6-1.6l-0.6,0.6l2.8,2.8
		l2.8-2.8L6,11.2l-1.7,1.6V10c0-2.5,2.1-4.6,4.6-4.6s4.6,2.1,4.6,4.6s-2.1,4.6-4.6,4.6L8.9,15.5z"/>
</g>
</svg>
