<?xml version="1.0" encoding="utf-8"?>
<!-- Generator: Adobe Illustrator 26.0.1, SVG Export Plug-In . SVG Version: 6.00 Build 0)  -->
<svg version="1.0" id="레이어_1" xmlns="http://www.w3.org/2000/svg" xmlns:xlink="http://www.w3.org/1999/xlink" x="0px"
	 y="0px" viewBox="0 0 40 40" style="enable-background:new 0 0 40 40;" xml:space="preserve">
<style type="text/css">
	.st0{fill:#3F434B;}
	.st1{fill:#FFFFFF;}
</style>
<path class="st0" d="M10,0h20c5.5,0,10,4.5,10,10v20c0,5.5-4.5,10-10,10H10C4.5,40,0,35.5,0,30V10C0,4.5,4.5,0,10,0z"/>
<path class="st1" d="M28.8,15L25,11.2c-0.1-0.1-0.3-0.2-0.5-0.2h-12c-0.8,0-1.5,0.7-1.5,1.5v15c0,0.8,0.7,1.5,1.5,1.5h15
	c0.8,0,1.5-0.7,1.5-1.5v-12C29,15.3,28.9,15.1,28.8,15z M17,12.5h6v3h-6V12.5z M23,27.5h-6v-6h6V27.5z M24.5,27.5v-6
	c0-0.8-0.7-1.5-1.5-1.5h-6c-0.8,0-1.5,0.7-1.5,1.5v6h-3v-15h3v3c0,0.8,0.7,1.5,1.5,1.5h6c0.8,0,1.5-0.7,1.5-1.5v-2.7l3,3v11.7H24.5z
	"/>
</svg>
