<?xml version="1.0" encoding="utf-8"?>
<!-- Generator: Adobe Illustrator 26.0.1, SVG Export Plug-In . SVG Version: 6.00 Build 0)  -->
<svg version="1.0" id="레이어_1" xmlns="http://www.w3.org/2000/svg" xmlns:xlink="http://www.w3.org/1999/xlink" x="0px"
	 y="0px" viewBox="0 0 34 32" style="enable-background:new 0 0 34 32;" xml:space="preserve">
<style type="text/css">
	.st0{fill:none;stroke:#000000;stroke-width:1.3;}
	.st1{stroke:#000000;stroke-width:0.8;}
</style>
<g id="마스크_그룹_373" transform="translate(1346 434.051)">
	<g id="Set_User_to_Group" transform="translate(-3 -.051)">
		<g id="graphical-data-flow">
			<path id="패스_1449" d="M-1326.3-409.5h-3.8c-1,0-1.9-0.8-1.9-1.9v-2.5h1.2v2.5c0,0.3,0.3,0.6,0.6,0.6h3.8V-409.5z"/>
			<path id="패스_1450" d="M-1321.4-419.5h-1.2v-1.9c0-0.3-0.3-0.6-0.6-0.6h-3.1v-1.2h3.1c1,0,1.9,0.8,1.9,1.9V-419.5z"/>
			<g id="Icon" transform="translate(1 1)">
				<g id="user-filled">
					<path id="패스_1446" class="st0" d="M-1337-416.7h8.1v-2c0-1.6-1.3-2.8-2.8-2.8h-2.4c-1.6,0-2.8,1.3-2.8,2.8V-416.7z"/>
					<path id="패스_1447" class="st0" d="M-1335.8-425.2c0,1.6,1.3,2.8,2.8,2.8c1.6,0,2.8-1.3,2.8-2.8c0-1.6-1.3-2.8-2.8-2.8
						C-1334.5-428-1335.8-426.7-1335.8-425.2L-1335.8-425.2z"/>
				</g>
			</g>
			<g id="Folder" transform="translate(12.767 11.34)">
				<g id="Line">
					<path id="folder-line" class="st1" d="M-1327.9-421v-4.2c0-0.3-0.3-0.6-0.6-0.6c0,0,0,0,0,0h-4.2c-0.3,0-0.6-0.3-0.6-0.6
						c0,0,0,0,0,0v-0.4c0-0.3-0.3-0.6-0.6-0.6c0,0,0,0,0,0h-1.9c-0.3,0-0.6,0.3-0.6,0.6c0,0,0,0,0,0v5.7c0,0.3,0.3,0.6,0.6,0.6
						c0,0,0,0,0,0h7.2C-1328.1-420.4-1327.9-420.6-1327.9-421C-1327.9-420.9-1327.9-420.9-1327.9-421z M-1327.1-425.1v4.2
						c0,0.7-0.6,1.3-1.3,1.3h-7.2c-0.4,0-0.7-0.1-0.9-0.4c-0.3-0.2-0.4-0.6-0.4-0.9v-5.7c0-0.4,0.1-0.7,0.4-0.9
						c0.2-0.3,0.6-0.4,0.9-0.4h1.9c0.4,0,0.7,0.1,0.9,0.4c0.3,0.2,0.4,0.6,0.4,0.9v0.2h4c0.4,0,0.7,0.1,0.9,0.4
						C-1327.2-425.8-1327.1-425.5-1327.1-425.1L-1327.1-425.1z"/>
				</g>
			</g>
		</g>
	</g>
</g>
</svg>
