<?xml version="1.0" encoding="utf-8"?>
<!-- Generator: Adobe Illustrator 26.0.1, SVG Export Plug-In . SVG Version: 6.00 Build 0)  -->
<svg version="1.0" id="레이어_1" xmlns="http://www.w3.org/2000/svg" xmlns:xlink="http://www.w3.org/1999/xlink" x="0px"
	 y="0px" viewBox="0 0 40 40" style="enable-background:new 0 0 40 40;" xml:space="preserve">
<style type="text/css">
	.st0{fill:#3F434B;}
	.st1{fill:#FFFFFF;}
	.st2{fill:none;stroke:#FFFFFF;stroke-width:1.5;stroke-linecap:round;stroke-linejoin:round;}
	.st3{fill:none;stroke:#FFFFFF;stroke-width:1.5;stroke-linecap:round;}
</style>
<path class="st0" d="M10,0h20c5.5,0,10,4.5,10,10v20c0,5.5-4.5,10-10,10H10C4.5,40,0,35.5,0,30V10C0,4.5,4.5,0,10,0z"/>
<g>
	<path class="st1" d="M29.3,11H11.7c-0.8,0-1.5,0.7-1.5,1.5v14.6c0,0.8,0.7,1.5,1.5,1.5c0,0,0,0,0,0h17.5c0.8,0,1.5-0.7,1.5-1.5l0,0
		V12.5C30.7,11.7,30.1,11,29.3,11L29.3,11z M11.7,12.5h4.4v14.6h-4.4V12.5z M29.3,27.1H17.6V12.5h11.7V27.1z"/>
	<g>
		<path class="st2" d="M23.5,17l3.1,3.1l-3.1,3.1"/>
		<path class="st3" d="M26.5,20.1H20"/>
	</g>
</g>
</svg>
