<?xml version="1.0" encoding="utf-8"?>
<!-- Generator: Adobe Illustrator 26.0.1, SVG Export Plug-In . SVG Version: 6.00 Build 0)  -->
<svg version="1.0" id="레이어_1" xmlns="http://www.w3.org/2000/svg" xmlns:xlink="http://www.w3.org/1999/xlink" x="0px"
	 y="0px" viewBox="0 0 40 40" style="enable-background:new 0 0 40 40;" xml:space="preserve">
<style type="text/css">
	.st0{fill:#3F434B;}
	.st1{fill:#FFFFFF;}
</style>
<g id="그룹_5389">
	<path id="사각형_15351" class="st0" d="M10,0h20c5.5,0,10,4.5,10,10v20c0,5.5-4.5,10-10,10H10C4.5,40,0,35.5,0,30V10
		C0,4.5,4.5,0,10,0z"/>
	<g id="tag" transform="translate(861 438)">
		<path id="패스_2031" class="st1" d="M-842.4-408.4c0.5,0,1-0.2,1.4-0.6l9-9c0.4-0.4,0.6-0.9,0.6-1.4v-5.6c0-1.1-0.9-2-2-2h-5.6
			c-0.5,0-1,0.2-1.4,0.6l-9,9c-0.8,0.8-0.8,2,0,2.8c0,0,0,0,0,0l5.6,5.6C-843.4-408.6-842.9-408.4-842.4-408.4L-842.4-408.4z
			 M-833.4-425.7c0.4,0,0.7,0.3,0.7,0.7l0,0v5.6c0,0.2-0.1,0.3-0.2,0.5l-9,9c-0.3,0.3-0.7,0.3-0.9,0l-5.6-5.6
			c-0.3-0.3-0.3-0.7,0-0.9l9-9c0.1-0.1,0.3-0.2,0.5-0.2L-833.4-425.7z"/>
		<path id="패스_2032" class="st1" d="M-836.7-419c1.5,0,2.7-1.2,2.7-2.7s-1.2-2.7-2.6-2.7c-1.5,0-2.7,1.2-2.7,2.6
			S-838.2-419-836.7-419C-836.7-419-836.7-419-836.7-419z M-836.7-423c0.7,0,1.3,0.6,1.3,1.3s-0.6,1.3-1.3,1.3
			c-0.7,0-1.3-0.6-1.3-1.3c0,0,0,0,0,0C-838.1-422.4-837.5-423-836.7-423L-836.7-423z"/>
	</g>
</g>
</svg>
