<?xml version="1.0" encoding="utf-8"?>
<!-- Generator: Adobe Illustrator 26.0.1, SVG Export Plug-In . SVG Version: 6.00 Build 0)  -->
<svg version="1.0" id="레이어_1" xmlns="http://www.w3.org/2000/svg" xmlns:xlink="http://www.w3.org/1999/xlink" x="0px"
	 y="0px" viewBox="0 0 40 40" style="enable-background:new 0 0 40 40;" xml:space="preserve">
<style type="text/css">
	.st0{fill:#2E3137;}
	.st1{fill:#FFFFFF;}
	.st2{fill:#FFFFFF;stroke:#FFFFFF;stroke-width:0.8;}
</style>
<path id="body" class="st0" d="M10,0h20c5.5,0,10,4.5,10,10v20c0,5.5-4.5,10-10,10H10C4.5,40,0,35.5,0,30V10C0,4.5,4.5,0,10,0z"/>
<g id="icon" transform="translate(1443.75 438.465)">
	<path id="패스_3048" class="st1" d="M-1431.8-418.6h4.4v1.5h-4.4V-418.6z"/>
	<path id="패스_3049" class="st1" d="M-1431.8-421.6h7.4v1.5h-7.4V-421.6z"/>
	<path id="패스_3050" class="st1" d="M-1431.8-424.5h7.4v1.5h-7.4V-424.5z"/>
	<path id="패스_3051" class="st1" d="M-1426.9-411.2h-6.4V-426h17.8v3.4h1.5v-3.4c0-0.8-0.7-1.5-1.5-1.5h-17.8
		c-0.8,0-1.5,0.7-1.5,1.5l0,0v14.8c0,0.8,0.7,1.5,1.5,1.5h6.4L-1426.9-411.2z"/>
	<path id="reset" class="st2" d="M-1416.6-409.1c3,0,5.5-2.5,5.5-5.5s-2.5-5.5-5.5-5.5s-5.5,2.5-5.5,5.5v2.8l-1.7-1.6l-0.6,0.6
		l2.8,2.8l2.8-2.8l-0.6-0.6l-1.7,1.6v-2.8c0-2.5,2.1-4.6,4.6-4.6s4.6,2.1,4.6,4.6s-2.1,4.6-4.6,4.6L-1416.6-409.1z"/>
</g>
</svg>
