<?xml version="1.0" encoding="utf-8"?>
<!-- Generator: Adobe Illustrator 26.0.1, SVG Export Plug-In . SVG Version: 6.00 Build 0)  -->
<svg version="1.0" id="레이어_1" xmlns="http://www.w3.org/2000/svg" xmlns:xlink="http://www.w3.org/1999/xlink" x="0px"
	 y="0px" viewBox="0 0 40 40" style="enable-background:new 0 0 40 40;" xml:space="preserve">
<style type="text/css">
	.st0{fill:#2E3137;}
	.st1{fill:#FFFFFF;}
</style>
<path id="body" class="st0" d="M10,0h20c5.5,0,10,4.5,10,10v20c0,5.5-4.5,10-10,10H10C4.5,40,0,35.5,0,30V10C0,4.5,4.5,0,10,0z"/>
<g id="icon" transform="translate(1444.75 438.465)">
	<path id="패스_3038" class="st1" d="M-1431.8-418.6h4.4v1.5h-4.4V-418.6z"/>
	<path id="패스_3039" class="st1" d="M-1431.8-421.6h7.4v1.5h-7.4V-421.6z"/>
	<path id="패스_3040" class="st1" d="M-1431.8-424.5h7.4v1.5h-7.4V-424.5z"/>
	<path id="패스_3041" class="st1" d="M-1426.9-411.2h-6.4V-426h17.8v4.4h1.5v-4.4c0-0.8-0.7-1.5-1.5-1.5h-17.8
		c-0.8,0-1.5,0.7-1.5,1.5l0,0v14.8c0,0.8,0.7,1.5,1.5,1.5h6.4L-1426.9-411.2z"/>
	<path id="패스_3042" class="st1" d="M-1420.4-412.1l-2.6-2.6l-1.4,1.4l3.9,3.9l7.9-7.9l-1.4-1.4L-1420.4-412.1z"/>
</g>
</svg>
