<?xml version="1.0" encoding="utf-8"?>
<!-- Generator: Adobe Illustrator 26.0.0, SVG Export Plug-In . SVG Version: 6.00 Build 0)  -->
<svg version="1.0" id="레이어_1" xmlns="http://www.w3.org/2000/svg" xmlns:xlink="http://www.w3.org/1999/xlink" x="0px"
	 y="0px" viewBox="0 0 22 22" style="enable-background:new 0 0 22 22;" xml:space="preserve">
<style type="text/css">
	.st0{fill:#427CFD;}
	.st1{fill-rule:evenodd;clip-rule:evenodd;fill:#427CFD;}
</style>
<g transform="translate(-531 -394)">
	<g>
		<path class="st0" d="M544.4,405c0,1.3-1.1,2.4-2.4,2.4c-1.3,0-2.4-1.1-2.4-2.4s1.1-2.4,2.4-2.4l0,0
			C543.3,402.6,544.4,403.7,544.4,405z"/>
		<path class="st1" d="M534.3,405c0,0,2.9-5.3,7.7-5.3c4.8,0,7.7,5.3,7.7,5.3s-2.9,5.3-7.7,5.3C537.2,410.3,534.3,405,534.3,405z
			 M542,408.4c1.9,0,3.4-1.5,3.4-3.4c0-1.9-1.5-3.4-3.4-3.4s-3.4,1.5-3.4,3.4C538.6,406.9,540.1,408.4,542,408.4
			C542,408.4,542,408.4,542,408.4L542,408.4z"/>
	</g>
</g>
</svg>
