<?xml version="1.0" encoding="utf-8"?>
<!-- Generator: Adobe Illustrator 26.0.1, SVG Export Plug-In . SVG Version: 6.00 Build 0)  -->
<svg version="1.0" id="레이어_1" xmlns="http://www.w3.org/2000/svg" xmlns:xlink="http://www.w3.org/1999/xlink" x="0px"
	 y="0px" viewBox="0 0 36 24" style="enable-background:new 0 0 36 24;" xml:space="preserve">
<style type="text/css">
	.st0{fill:#438EFF;}
	.st1{fill:#FFFFFF;}
</style>
<rect y="0" class="st0" width="36" height="24"/>
<g>
	<path class="st1" d="M30.1,21.8H5.9c-1.2,0-2.2-1-2.2-2.2V4.4c0-1.2,1-2.2,2.2-2.2h24.1c1.2,0,2.2,1,2.2,2.2v15.1
		C32.2,20.8,31.3,21.8,30.1,21.8z M5.9,3.8c-0.4,0-0.7,0.3-0.7,0.7v15.1c0,0.4,0.3,0.7,0.7,0.7h24.1c0.4,0,0.7-0.3,0.7-0.7V4.4
		c0-0.4-0.3-0.7-0.7-0.7H5.9z"/>
	<rect x="8.2" y="6.8" class="st1" width="1.5" height="1.5"/>
	<rect x="12.6" y="6.8" class="st1" width="1.5" height="1.5"/>
	<rect x="8.2" y="11.2" class="st1" width="1.5" height="1.5"/>
	<rect x="8.2" y="15.8" class="st1" width="1.5" height="1.5"/>
	<rect x="12" y="15.8" class="st1" width="12" height="1.5"/>
	<rect x="26.2" y="15.8" class="st1" width="1.5" height="1.5"/>
	<rect x="12.6" y="11.2" class="st1" width="1.5" height="1.5"/>
	<rect x="16.9" y="11.2" class="st1" width="1.5" height="1.5"/>
	<rect x="16.9" y="6.8" class="st1" width="1.5" height="1.5"/>
	<rect x="21.2" y="6.8" class="st1" width="1.5" height="1.5"/>
	<rect x="24.8" y="6.8" class="st1" width="3" height="1.5"/>
	<rect x="24.8" y="11.2" class="st1" width="3" height="1.5"/>
	<rect x="21.2" y="11.2" class="st1" width="1.5" height="1.5"/>
</g>
</svg>
