<?xml version="1.0" encoding="utf-8"?>
<!-- Generator: Adobe Illustrator 26.0.0, SVG Export Plug-In . SVG Version: 6.00 Build 0)  -->
<svg version="1.0" id="레이어_1" xmlns="http://www.w3.org/2000/svg" xmlns:xlink="http://www.w3.org/1999/xlink" x="0px"
	 y="0px" viewBox="0 0 28 28" style="enable-background:new 0 0 28 28;" xml:space="preserve">
<style type="text/css">
	.st0{fill:#FF6521;}
</style>
<g id="common_icon_project_n" transform="translate(-141 -288)">
	<path id="사각형_1915" class="st0" d="M151,295L151,295c1.7,0,3,1.3,3,3l0,0c0,1.7-1.3,3-3,3l0,0c-1.7,0-3-1.3-3-3l0,0
		C148,296.3,149.3,295,151,295z"/>
	<path id="사각형_4161" class="st0" d="M151,303L151,303c1.7,0,3,1.3,3,3l0,0c0,1.7-1.3,3-3,3l0,0c-1.7,0-3-1.3-3-3l0,0
		C148,304.3,149.3,303,151,303z"/>
	<path id="사각형_1916" class="st0" d="M159,295L159,295c1.7,0,3,1.3,3,3l0,0c0,1.7-1.3,3-3,3l0,0c-1.7,0-3-1.3-3-3l0,0
		C156,296.3,157.3,295,159,295z"/>
	<path id="사각형_4162" class="st0" d="M159,303L159,303c1.7,0,3,1.3,3,3l0,0c0,1.7-1.3,3-3,3l0,0c-1.7,0-3-1.3-3-3l0,0
		C156,304.3,157.3,303,159,303z"/>
</g>
</svg>
