<?xml version="1.0" encoding="utf-8"?>
<!-- Generator: Adobe Illustrator 26.0.1, SVG Export Plug-In . SVG Version: 6.00 Build 0)  -->
<svg version="1.0" id="레이어_1" xmlns="http://www.w3.org/2000/svg" xmlns:xlink="http://www.w3.org/1999/xlink" x="0px"
	 y="0px" viewBox="0 0 34 32" style="enable-background:new 0 0 34 32;" xml:space="preserve">
<g id="config_common_bt_list_filter_apply_h-2" transform="translate(-39)">
	<g id="config_common_bt_list_filter_apply_h-3" transform="translate(1028 428)">
		<g id="그룹_1785" transform="translate(8 7.945)">
			<path id="빼기_3" d="M-982.4-411.1c-0.7,0-1.3-0.6-1.3-1.3c0,0,0-0.1,0-0.1v-6l-4.9-4.9c-0.2-0.2-0.4-0.6-0.4-0.9v-2.4
				c0-0.7,0.6-1.3,1.3-1.3h13.2c0.7,0,1.3,0.6,1.3,1.3v2.4c0,0.3-0.1,0.7-0.4,0.9l-3.6,3.6l-0.9-0.9l3.6-3.6v-2.4h-13.2v2.4l5.3,5.3
				v6.5l2.2-1.7l0.3-0.4l1.1,1.1c-0.2,0.3-0.5,0.5-0.8,0.7l-2.5,1.6L-982.4-411.1L-982.4-411.1z"/>
			<path id="bx-check" d="M-975.8-415.8l-2.7-2.7l-1.2,1.2l3.9,3.9l2.3-2.3l3.8-3.9l0.3-0.3l-1.2-1.2L-975.8-415.8z"/>
		</g>
	</g>
</g>
</svg>
