<?xml version="1.0" encoding="utf-8"?>
<!-- Generator: Adobe Illustrator 26.0.1, SVG Export Plug-In . SVG Version: 6.00 Build 0)  -->
<svg version="1.0" id="레이어_1" xmlns="http://www.w3.org/2000/svg" xmlns:xlink="http://www.w3.org/1999/xlink" x="0px"
	 y="0px" viewBox="0 0 22 22" style="enable-background:new 0 0 22 22;" xml:space="preserve">
<style type="text/css">
	.st0{fill:none;}
	.st1{fill:none;stroke:#3A434E;}
	.st2{fill:#3A434E;}
</style>
<g id="popups_common_colorpicker_icon_favoritecolor_n" transform="translate(-714.4 -247)">
	<g id="타원_512" transform="translate(714.4 247)">
		<circle class="st0" cx="11" cy="11" r="11"/>
		<circle class="st1" cx="11" cy="11" r="10.5"/>
	</g>
	<g id="그룹_3718" transform="translate(16658.9 9667)">
		<path id="사각형_4839" class="st2" d="M-15933.5-9413L-15933.5-9413c0.3,0,0.5,0.2,0.5,0.5v7c0,0.3-0.2,0.5-0.5,0.5l0,0
			c-0.3,0-0.5-0.2-0.5-0.5v-7C-15934-9412.8-15933.8-9413-15933.5-9413z"/>
		<path id="사각형_4840" class="st2" d="M-15929.5-9409L-15929.5-9409c0,0.3-0.2,0.5-0.5,0.5h-7c-0.3,0-0.5-0.2-0.5-0.5l0,0
			c0-0.3,0.2-0.5,0.5-0.5h7C-15929.7-9409.5-15929.5-9409.3-15929.5-9409z"/>
	</g>
</g>
</svg>
