<?xml version="1.0" encoding="utf-8"?>
<!-- Generator: Adobe Illustrator 24.1.2, SVG Export Plug-In . SVG Version: 6.00 Build 0)  -->
<svg version="1.1" id="레이어_1" xmlns="http://www.w3.org/2000/svg" xmlns:xlink="http://www.w3.org/1999/xlink" x="0px"
	 y="0px" viewBox="0 0 34 32" style="enable-background:new 0 0 34 32;" xml:space="preserve">
<style type="text/css">
	.st0{fill:#FFFFFF;}
	.st1{fill:none;stroke:#000000;stroke-width:2.5496;}
</style>
<g id="add_Group" transform="translate(1536.5 384)">
	<g id="icon-Folder" transform="translate(-4.5)">
		<g id="Line">
			<path id="folder-line" d="M-1504.9-361.2v-12.3c0-0.9-0.7-1.7-1.7-1.7c0,0,0,0,0,0h-12.3c-0.9,0-1.7-0.7-1.7-1.7c0,0,0,0,0,0
				v-1.1c0-0.9-0.7-1.7-1.7-1.7c0,0,0,0,0,0h-5.6c-0.9,0-1.7,0.7-1.7,1.7c0,0,0,0,0,0v16.8c0,0.9,0.7,1.7,1.7,1.7c0,0,0,0,0,0h21.3
				C-1505.6-359.6-1504.9-360.3-1504.9-361.2C-1504.9-361.2-1504.9-361.2-1504.9-361.2L-1504.9-361.2z M-1502.6-373.6v12.3
				c0,2.2-1.8,3.9-3.9,3.9h-21.3c-1,0-2-0.4-2.8-1.2c-0.8-0.7-1.2-1.7-1.2-2.8v-16.8c0-1,0.4-2,1.2-2.8c0.7-0.8,1.7-1.2,2.8-1.2h5.6
				c1,0,2,0.4,2.8,1.2c0.8,0.7,1.2,1.7,1.2,2.8v0.6h11.8c1,0,2,0.4,2.8,1.2C-1503.1-375.6-1502.6-374.6-1502.6-373.6L-1502.6-373.6z
				"/>
		</g>
	</g>
	<rect id="사각형_14566" x="-1523.5" y="-373.2" class="st0" width="20.7" height="20.7"/>
	<line id="선_505" class="st1" x1="-1521.7" y1="-362.9" x2="-1503.5" y2="-362.9"/>
	<line id="선_506" class="st1" x1="-1512.6" y1="-372" x2="-1512.6" y2="-353.8"/>
</g>
</svg>
