<?xml version="1.0" encoding="utf-8"?>
<!-- Generator: Adobe Illustrator 24.1.2, SVG Export Plug-In . SVG Version: 6.00 Build 0)  -->
<svg version="1.1" id="레이어_1" xmlns="http://www.w3.org/2000/svg" xmlns:xlink="http://www.w3.org/1999/xlink" x="0px"
	 y="0px" viewBox="0 0 34 32" style="enable-background:new 0 0 34 32;" xml:space="preserve">
<style type="text/css">
	.st0{fill:none;}
	.st1{fill:none;stroke:#000000;stroke-width:2.2239;}
	.st2{fill:#FFFFFF;}
	.st3{fill:none;stroke:#FFFFFF;stroke-width:1.3222;}
	.st4{fill:none;stroke:#000000;stroke-width:2.3496;}
</style>
<g id="그룹_5916" transform="translate(0 5)">
	<g id="사각형_14691">
		<path class="st0" d="M3.6-1.1h19.1c1.6,0,3,1.3,3,3v2.4c0,1.6-1.3,3-3,3H3.6c-1.6,0-3-1.3-3-3V1.9C0.7,0.2,2-1.1,3.6-1.1z"/>
		<path class="st1" d="M3.6,0h19.1c1,0,1.9,0.8,1.9,1.9v2.4c0,1-0.8,1.9-1.9,1.9H3.6c-1,0-1.9-0.8-1.9-1.9V1.9C1.8,0.9,2.6,0,3.6,0z
			"/>
	</g>
	<g id="사각형_14692" transform="translate(0 6.557)">
		<path class="st0" d="M3.6,2.1h19.1c1.6,0,3,1.3,3,3v2.4c0,1.6-1.3,3-3,3H3.6c-1.6,0-3-1.3-3-3V5C0.7,3.4,2,2.1,3.6,2.1z"/>
		<path class="st1" d="M3.6,3.2h19.1c1,0,1.9,0.8,1.9,1.9v2.4c0,1-0.8,1.9-1.9,1.9H3.6c-1,0-1.9-0.8-1.9-1.9V5
			C1.8,4,2.6,3.2,3.6,3.2z"/>
	</g>
	<g id="사각형_14693" transform="translate(0 13.114)">
		<path class="st0" d="M3.6,5.2h19.1c1.6,0,3,1.3,3,3v2.4c0,1.6-1.3,3-3,3H3.6c-1.6,0-3-1.3-3-3V8.2C0.7,6.6,2,5.2,3.6,5.2z"/>
		<path class="st1" d="M3.6,6.4h19.1c1,0,1.9,0.8,1.9,1.9v2.4c0,1-0.8,1.9-1.9,1.9H3.6c-1,0-1.9-0.8-1.9-1.9V8.2
			C1.8,7.2,2.6,6.4,3.6,6.4z"/>
	</g>
	<circle id="타원_616" cx="20.1" cy="3.1" r="1.4"/>
	<circle id="타원_617" cx="20.1" cy="12.8" r="1.4"/>
	<circle id="타원_618" cx="20.1" cy="22.5" r="1.4"/>
</g>
<g id="Mask-3" transform="translate(0 4)">
	<rect x="17" y="-1.6" class="st2" width="15.3" height="8.9"/>
	<rect x="17.6" y="-0.8" class="st3" width="14.2" height="7.4"/>
</g>
<g id="Mask-3_1_" transform="translate(0 4)">
	<rect x="21.6" y="-2.5" class="st2" width="8.9" height="15.3"/>
	<rect x="22.3" y="-2" class="st3" width="7.4" height="14.2"/>
</g>
<g id="Add" transform="translate(12.178 2.43)">
	<line id="선_519" class="st4" x1="6.5" y1="5.1" x2="21.2" y2="5.1"/>
	<line id="선_520" class="st4" x1="13.8" y1="-2.3" x2="13.8" y2="12.6"/>
</g>
</svg>
