<?xml version="1.0" encoding="utf-8"?>
<!-- Generator: Adobe Illustrator 24.1.2, SVG Export Plug-In . SVG Version: 6.00 Build 0)  -->
<svg version="1.1" id="레이어_1" xmlns="http://www.w3.org/2000/svg" xmlns:xlink="http://www.w3.org/1999/xlink" x="0px"
	 y="0px" viewBox="0 0 34 32" style="enable-background:new 0 0 34 32;" xml:space="preserve">
<style type="text/css">
	.st0{fill:#FFFFFF;}
	.st1{fill:none;stroke:#FFFFFF;stroke-width:1.1255;}
	.st2{fill:none;stroke:#FFFFFF;stroke-width:1.2;}
	.st3{fill:none;stroke:#000000;stroke-width:1.92;}
</style>
<path id="패스_2505" d="M5.3,22h1.5v2.6H5.3V22z"/>
<path id="패스_2506" d="M9.6,22h1.5v2.6H9.6V22z"/>
<path id="패스_2507" d="M13.9,22h1.5v2.6h-1.5V22z"/>
<path id="패스_2508" d="M18,22h1.5v2.6H18V22z"/>
<path id="패스_2509" d="M22.3,22h1.5v2.6h-1.5V22z"/>
<path id="패스_2510" d="M4.5,18.7h20.2v1.2H4.5V18.7z"/>
<path id="패스_2511" d="M28.2,19.1l-1.3-4.5c-0.7,0.3-1.2,0.3-1.7,0.4l1.5,4.8v6.7h-24v-6.7L5.4,11h13.6c-0.3-0.5-0.4-1.2-0.5-1.6
	H5.3c-0.8,0-1.3,0.5-1.6,1.2L1,19.2c-0.1,0.1-0.1,0.4-0.1,0.5v6.7c0,0.9,0.8,1.6,1.6,1.6l0,0h23.8c0.9,0,1.6-0.8,1.6-1.6l0,0v-6.7
	C28.2,19.5,28.2,19.2,28.2,19.1z"/>
<rect x="18.7" y="5.9" class="st0" width="13.9" height="6.3"/>
<rect x="19.3" y="6.5" class="st1" width="13.3" height="5.1"/>
<rect x="23.8" y="0.8" class="st0" width="6.3" height="17.7"/>
<rect x="24.4" y="1.4" class="st2" width="5.1" height="16.4"/>
<line id="선_509" class="st3" x1="19.9" y1="9.1" x2="32.6" y2="9.1"/>
<line id="선_510" class="st3" x1="26.3" y1="15.3" x2="26.3" y2="2.8"/>
</svg>
