<?xml version="1.0" encoding="utf-8"?>
<!-- Generator: Adobe Illustrator 24.1.2, SVG Export Plug-In . SVG Version: 6.00 Build 0)  -->
<svg version="1.1" id="레이어_1" xmlns="http://www.w3.org/2000/svg" xmlns:xlink="http://www.w3.org/1999/xlink" x="0px"
	 y="0px" viewBox="0 0 34 32" style="enable-background:new 0 0 34 32;" xml:space="preserve">
<style type="text/css">
	.st0{fill:#FFFFFF;}
	.st1{fill:none;stroke:#000000;stroke-width:2.3184;}
</style>
<path id="패스_2627" d="M25.9,9.4l-8.3-8.3c-0.4-0.5-1.1-0.8-1.8-0.8H5C3.5,0.3,2.3,1.5,2.3,3v24.5c0,1.5,1.2,2.7,2.7,2.7h19
	c1.5,0,2.7-1.2,2.7-2.7V11.3C26.7,10.6,26.4,9.9,25.9,9.4L25.9,9.4z M15.8,3l8,8.2h-8V3z M5,27.5V3h8.2v8.2c0,1.5,1.2,2.7,2.7,2.7
	H24v13.6H5z"/>
<rect id="사각형_14733" x="16.6" y="15.3" class="st0" width="17.4" height="16.7"/>
<g id="Add" transform="translate(1629 393.5)">
	<line id="선_588" class="st1" x1="-1610.9" y1="-368.8" x2="-1596.4" y2="-368.8"/>
	<line id="선_589" class="st1" x1="-1603.7" y1="-361.6" x2="-1603.7" y2="-376.1"/>
</g>
</svg>
