<?xml version="1.0" encoding="utf-8"?>
<!-- Generator: Adobe Illustrator 24.1.2, SVG Export Plug-In . SVG Version: 6.00 Build 0)  -->
<svg version="1.1" id="레이어_1" xmlns="http://www.w3.org/2000/svg" xmlns:xlink="http://www.w3.org/1999/xlink" x="0px"
	 y="0px" viewBox="0 0 34 32" style="enable-background:new 0 0 34 32;" xml:space="preserve">
<style type="text/css">
	.st0{fill:none;}
	.st1{fill:none;stroke:#000000;stroke-width:2.4727;}
	.st2{fill:none;stroke:#000000;stroke-width:2.3182;stroke-linecap:round;}
	.st3{fill:none;stroke:#000000;stroke-width:2.3182;}
</style>
<g id="icon">
	<g id="body-2" transform="translate(0 3.087)">
		<path class="st0" d="M3.1,3.9h27.8C32.6,3.9,34,5.3,34,7v10.8c0,1.7-1.4,3.1-3.1,3.1H3.1c-1.7,0-3.1-1.4-3.1-3.1V7
			C0,5.3,1.4,3.9,3.1,3.9z"/>
		<path class="st1" d="M3.1,5.1h27.8c1.1,0,1.9,0.8,1.9,1.9v10.8c0,1.1-0.8,1.9-1.9,1.9H3.1c-1.1,0-1.9-0.8-1.9-1.9V7
			C1.2,6.1,2,5.1,3.1,5.1z"/>
	</g>
	<g id="cursor" transform="translate(5.528)">
		<path id="패스_1436" class="st2" d="M3,2.2h4.5"/>
		<path id="패스_1437" class="st2" d="M3,29.3h4.5"/>
		<path id="패스_1438" class="st3" d="M5.3,2.2v27"/>
	</g>
</g>
</svg>
