<?xml version="1.0" encoding="utf-8"?>
<!-- Generator: Adobe Illustrator 24.1.2, SVG Export Plug-In . SVG Version: 6.00 Build 0)  -->
<svg version="1.1" id="레이어_1" xmlns="http://www.w3.org/2000/svg" xmlns:xlink="http://www.w3.org/1999/xlink" x="0px"
	 y="0px" viewBox="0 0 26 26" style="enable-background:new 0 0 26 26;" xml:space="preserve">
<style type="text/css">
	.st0{fill:#1C67FF;}
</style>
<g transform="translate(-1858 -964.488)">
	<g>
		<path class="st0" d="M1869.2,986.6c2.5,0,4.8-0.8,6.7-2.3l6.2,6.2l1.9-1.9l-6.2-6.2c3.7-4.8,2.9-11.7-1.9-15.6
			c-4.8-3.7-11.7-2.9-15.6,1.9c-3.7,4.8-2.9,11.8,1.9,15.6C1864.3,985.9,1866.7,986.6,1869.2,986.6L1869.2,986.6z M1869.2,967.2
			c4.6,0,8.3,3.7,8.3,8.3c0,4.6-3.7,8.3-8.3,8.3c-4.6,0-8.3-3.7-8.3-8.3l0,0C1860.9,971,1864.5,967.2,1869.2,967.2L1869.2,967.2z"/>
	</g>
</g>
</svg>
