<?xml version="1.0" encoding="utf-8"?>
<!-- Generator: Adobe Illustrator 24.1.2, SVG Export Plug-In . SVG Version: 6.00 Build 0)  -->
<svg version="1.1" id="레이어_1" xmlns="http://www.w3.org/2000/svg" xmlns:xlink="http://www.w3.org/1999/xlink" x="0px"
	 y="0px" viewBox="0 0 34 32" style="enable-background:new 0 0 34 32;" xml:space="preserve">
<style type="text/css">
	.st0{fill:none;}
	.st1{fill:#FFFFFF;}
	.st2{fill:none;stroke:#000000;stroke-width:2.3489;}
</style>
<path class="st0" d="M3,0h28c1.7,0,3,1.3,3,3v26c0,1.7-1.3,3-3,3H3c-1.7,0-3-1.3-3-3V3C0,1.3,1.3,0,3,0z"/>
<g id="data-check" transform="translate(1533.685 381.521)">
	<path id="패스_2610" d="M-1522.7-375.3c0,0.6-0.5,1.2-1.1,1.2c-0.6,0-1.2-0.5-1.2-1.1c0-0.6,0.5-1.2,1.1-1.2c0,0,0,0,0,0
		C-1523.2-376.4-1522.7-375.9-1522.7-375.3z"/>
	<path id="패스_2611" d="M-1522.7-366.2c0,0.6-0.5,1.2-1.1,1.2c-0.6,0-1.2-0.5-1.2-1.1c0-0.6,0.5-1.2,1.1-1.2c0,0,0,0,0,0
		C-1523.2-367.3-1522.7-366.8-1522.7-366.2z"/>
	<path id="패스_2612" d="M-1522.7-357.1c0,0.6-0.5,1.2-1.1,1.2c-0.6,0-1.2-0.5-1.2-1.1c0-0.6,0.5-1.2,1.1-1.2c0,0,0,0,0,0
		C-1523.2-358.2-1522.7-357.7-1522.7-357.1z"/>
	<path id="패스_2613" d="M-1509-381h-18.2c-1.3,0-2.3,1-2.3,2.3v25.1c0,1.3,1,2.3,2.3,2.3l0,0h9.1v-2.3h-9.1v-6.8h20.5v-18.2
		C-1506.7-380-1507.8-381-1509-381z M-1509-362.8h-18.2v-6.8h18.2V-362.8z M-1509-371.9h-18.2v-6.8h18.2V-371.9z"/>
	<rect id="사각형_14729" x="-1512.9" y="-367.1" class="st1" width="8.8" height="8.8"/>
</g>
<g id="Add" transform="translate(1543 392.799)">
	<line id="선_580" class="st2" x1="-1525.2" y1="-368.3" x2="-1510.4" y2="-368.3"/>
	<line id="선_581" class="st2" x1="-1517.8" y1="-375.7" x2="-1517.8" y2="-360.9"/>
</g>
</svg>
