<?xml version="1.0" encoding="utf-8"?>
<!-- Generator: Adobe Illustrator 24.1.2, SVG Export Plug-In . SVG Version: 6.00 Build 0)  -->
<svg version="1.1" id="레이어_1" xmlns="http://www.w3.org/2000/svg" xmlns:xlink="http://www.w3.org/1999/xlink" x="0px"
	 y="0px" viewBox="0 0 34 32" style="enable-background:new 0 0 34 32;" xml:space="preserve">
<style type="text/css">
	.st0{fill:none;}
	.st1{stroke:#000000;stroke-width:0.3078;}
</style>
<rect x="0.3" y="0.3" class="st0" width="33.4" height="31.5"/>
<g id="tag-edit" transform="translate(-114 94.206)">
	<path id="패스_2468" class="st1" d="M122.4-79.6c-2.2,0-4-1.8-4-4s1.8-4,4-4s4,1.8,4,4S124.5-79.6,122.4-79.6z M122.4-85.5
		c-1.1,0-2,0.9-2,2s0.9,2,2,2s2-0.9,2-2C124.3-84.6,123.5-85.5,122.4-85.5L122.4-85.5z"/>
	<path id="패스_2469" class="st1" d="M138-73.6l-7.8,7.8l-13.8-13.8v-9.9h9.9l3.5,3.7l1.4-1.4l-3.5-3.7c-0.4-0.4-0.9-0.6-1.4-0.6
		h-9.9c-1.1,0-2,0.9-2,2v9.9c0,0.5,0.2,1,0.6,1.4l13.8,13.8c0.8,0.8,2,0.8,2.8,0l7.8-7.8L138-73.6z"/>
</g>
<g id="그룹_5939" transform="translate(-104.768 97.313)">
	<path id="패스_2578" class="st1" d="M132.9-89.3l-1.2,1.2l3.5,3.5h-7.8v1.8h7.8l-3.5,3.5l1.2,1.2l5.6-5.6L132.9-89.3z"/>
	<path id="패스_2579" class="st1" d="M125.1-89.3l1.2,1.2l-3.5,3.5h4.3v1.8h-4.3l3.5,3.5l-1.2,1.2l-5.6-5.6L125.1-89.3L125.1-89.3
		z"/>
</g>
</svg>
