<?xml version="1.0" encoding="utf-8"?>
<!-- Generator: Adobe Illustrator 24.1.2, SVG Export Plug-In . SVG Version: 6.00 Build 0)  -->
<svg version="1.1" id="레이어_1" xmlns="http://www.w3.org/2000/svg" xmlns:xlink="http://www.w3.org/1999/xlink" x="0px"
	 y="0px" viewBox="0 0 34 32" style="enable-background:new 0 0 34 32;" xml:space="preserve">
<style type="text/css">
	.st0{fill:#FFFFFF;}
	.st1{fill:none;stroke:#000000;stroke-width:2.272;}
</style>
<path id="패스_2770" d="M15.3,26.5l-1.6-0.9l3.8-6.6h5.7c1,0,1.9-0.8,1.9-1.9V5.6c0-1-0.8-1.9-1.9-1.9H4.2c-1,0-1.9,0.8-1.9,1.9
	V17c0,1,0.8,1.9,1.9,1.9h8.5v1.9H4.2c-2.1,0-3.8-1.7-3.8-3.8V5.6c0-2.1,1.7-3.8,3.8-3.8c0,0,0,0,0,0h18.9c2.1,0,3.8,1.7,3.8,3.8V17
	c0,2.1-1.7,3.8-3.8,3.8h-4.6L15.3,26.5z"/>
<rect id="사각형_15163" x="22" y="10.4" class="st0" width="11.6" height="12.8"/>
<rect id="사각형_15164" x="16.4" y="17.5" class="st0" width="12.8" height="5.7"/>
<line id="선_599" class="st1" x1="25.9" y1="12.5" x2="25.9" y2="28.8"/>
<line id="선_598" class="st1" x1="17.8" y1="20.7" x2="34" y2="20.7"/>
<path id="패스_2771" d="M6.1,7.5h15.1v1.9H6.1V7.5z"/>
<path id="패스_2772" d="M6.1,13.2h9.5v1.9H6.1V13.2z"/>
</svg>
