<?xml version="1.0" encoding="utf-8"?>
<!-- Generator: Adobe Illustrator 24.1.2, SVG Export Plug-In . SVG Version: 6.00 Build 0)  -->
<svg version="1.1" id="레이어_1" xmlns="http://www.w3.org/2000/svg" xmlns:xlink="http://www.w3.org/1999/xlink" x="0px"
	 y="0px" viewBox="0 0 34 32" style="enable-background:new 0 0 34 32;" xml:space="preserve">
<style type="text/css">
	.st0{stroke:#000000;stroke-width:0.2839;}
	.st1{fill:#FFFFFF;}
	.st2{fill:none;stroke:#000000;stroke-width:2.2714;}
</style>
<path id="패스_2781" class="st0" d="M19.1,7.5H3.4l2.8-2.8L5,3.6L0.4,8.3L5,13l1.1-1.1L3.4,9.1h15.7v5.4h1.6V9.1
	C20.6,8.2,19.9,7.5,19.1,7.5z"/>
<path id="패스_2782" class="st0" d="M10.3,18.7l2.8,2.8l-9.6,0.1v-5.4H1.9v5.4c0,0.9,0.7,1.6,1.6,1.6c0,0,0,0,0,0l9.6-0.1
	l-2.8,2.8l1.1,1.1l4.7-4.7l-4.7-4.7L10.3,18.7z"/>
<rect id="사각형_15165" x="21.7" y="11.7" class="st1" width="12" height="12.8"/>
<rect id="사각형_15166" x="16" y="18.8" class="st1" width="15.6" height="5.7"/>
<line id="선_602" class="st2" x1="25.5" y1="13.9" x2="25.5" y2="30.1"/>
<line id="선_603" class="st2" x1="17.4" y1="22" x2="33.6" y2="22"/>
</svg>
