<?xml version="1.0" encoding="utf-8"?>
<!-- Generator: Adobe Illustrator 26.0.1, SVG Export Plug-In . SVG Version: 6.00 Build 0)  -->
<svg version="1.0" id="레이어_1" xmlns="http://www.w3.org/2000/svg" xmlns:xlink="http://www.w3.org/1999/xlink" x="0px"
	 y="0px" viewBox="0 0 30 30" style="enable-background:new 0 0 30 30;" xml:space="preserve">
<style type="text/css">
	.st0{fill:#FFFFFF;}
	.st1{fill:none;stroke:#ABCBF5;}
	.st2{fill:#4A98FF;}
</style>
<circle class="st0" cx="15" cy="15" r="15"/>
<circle class="st1" cx="15" cy="15" r="14.5"/>
<g id="그룹_6381" transform="translate(9 9)">
	<path id="사각형_16184" class="st2" d="M6,0L6,0c0.6,0,1,0.4,1,1v10c0,0.6-0.4,1-1,1l0,0c-0.6,0-1-0.4-1-1V1C5,0.4,5.4,0,6,0z"
		/>
	<path id="사각형_16185" class="st2" d="M12,6L12,6c0,0.6-0.4,1-1,1H1C0.4,7,0,6.6,0,6l0,0c0-0.6,0.4-1,1-1h10
		C11.6,5,12,5.4,12,6z"/>
</g>
</svg>
