<?xml version="1.0" encoding="utf-8"?>
<!-- Generator: Adobe Illustrator 26.0.1, SVG Export Plug-In . SVG Version: 6.00 Build 0)  -->
<svg version="1.0" id="레이어_1" xmlns="http://www.w3.org/2000/svg" xmlns:xlink="http://www.w3.org/1999/xlink" x="0px"
	 y="0px" viewBox="0 0 30 30" style="enable-background:new 0 0 30 30;" xml:space="preserve">
<style type="text/css">
	.st0{fill:#FFFFFF;}
	.st1{fill:#ABCBF5;}
	.st2{fill:#4A98FF;}
</style>
<g>
	<path class="st0" d="M15,29.5c-3.8,0-7.5-1.5-10.3-4.2C2,22.5,0.5,18.8,0.5,15c0-3.9,1.5-7.5,4.2-10.3C7.5,2,11.2,0.5,15,0.5
		c3.9,0,7.5,1.5,10.3,4.2c2.7,2.7,4.3,6.4,4.2,10.3c0,3.9-1.5,7.5-4.2,10.3C22.5,28,18.8,29.5,15,29.5z"/>
	<path class="st1" d="M15,1c-3.7,0-7.3,1.5-9.9,4.1C2.5,7.7,1,11.3,1,15c0,3.7,1.5,7.3,4.1,9.9C7.7,27.5,11.3,29,15,29
		c3.7,0,7.3-1.5,9.9-4.1c2.6-2.6,4.1-6.2,4.1-9.9c0-3.7-1.5-7.3-4.1-9.9C22.3,2.5,18.7,1,15,1 M15,0c8.3,0,15,6.7,15,15
		s-6.7,15-15,15S0,23.3,0,15S6.7,0,15,0z"/>
</g>
<g transform="translate(9 14.191)">
	<path class="st2" d="M12,0.8L12,0.8c0,0.6-0.4,1-1,1H1c-0.6,0-1-0.4-1-1l0,0c0-0.6,0.4-1,1-1h10C11.6-0.2,12,0.3,12,0.8z"/>
</g>
</svg>
