<?xml version="1.0" encoding="utf-8"?>
<!-- Generator: Adobe Illustrator 26.0.1, SVG Export Plug-In . SVG Version: 6.00 Build 0)  -->
<svg version="1.0" id="레이어_1" xmlns="http://www.w3.org/2000/svg" xmlns:xlink="http://www.w3.org/1999/xlink" x="0px"
	 y="0px" viewBox="0 0 34 32" style="enable-background:new 0 0 34 32;" xml:space="preserve">
<path d="M7,23.5h19.2v1.4H7V23.5z"/>
<path d="M23.1,11.8c0.5-0.5,0.6-1.3,0-1.9c0,0,0,0,0,0l-2.5-2.5c-0.5-0.5-1.3-0.6-1.9,0c0,0,0,0,0,0L8.4,17.7v4.4h4.4L23.1,11.8
	L23.1,11.8z M19.6,8.4l2.5,2.5l-2.1,2.1l-2.5-2.5L19.6,8.4L19.6,8.4z M9.7,20.8v-2.5l6.9-6.9l2.5,2.5l-6.9,6.9H9.7z"/>
</svg>
