<?xml version="1.0" encoding="utf-8"?>
<!-- Generator: Adobe Illustrator 26.0.1, SVG Export Plug-In . SVG Version: 6.00 Build 0)  -->
<svg version="1.0" id="레이어_1" xmlns="http://www.w3.org/2000/svg" xmlns:xlink="http://www.w3.org/1999/xlink" x="0px"
	 y="0px" viewBox="0 0 34 32" style="enable-background:new 0 0 34 32;" xml:space="preserve">
<style type="text/css">
	.st0{clip-path:url(#SVGID_00000096744083349374135100000004808587036767334843_);}
	.st1{fill:none;}
	.st2{fill:none;stroke:#000000;stroke-width:1.4;stroke-linecap:round;stroke-linejoin:round;}
	.st3{fill:#FFFFFF;}
	.st4{fill:none;stroke:#000000;stroke-width:1.4;}
</style>
<g id="그룹_5798" transform="translate(929 174)">
	<g id="그룹_5797" transform="translate(548 207)">
		<g id="그룹_5796">
			<g>
				<defs>
					<rect id="SVGID_1_" x="-1472" y="-376" width="21" height="21"/>
				</defs>
				<clipPath id="SVGID_00000171678099043467906380000009876429191724434073_">
					<use xlink:href="#SVGID_1_"  style="overflow:visible;"/>
				</clipPath>
				<g id="panel_library_icon_library_n" style="clip-path:url(#SVGID_00000171678099043467906380000009876429191724434073_);">
					<g id="그룹_5795" transform="translate(4.318 2.488)">
						<path id="사각형_14314" class="st1" d="M-1472-374h12.8c0.6,0,1,0.4,1,1v12.8c0,0.6-0.4,1-1,1h-12.8V-374z"/>
						<g id="그룹_5794">
							<path id="패스_2436" class="st2" d="M-1469.2-374v5.4l1.1-1.7l1.2,1.7v-5.4"/>
							<path id="패스_2437" class="st2" d="M-1459.7-376h-10.5c-1,0.1-1.8,0.9-1.8,2v13.5c0,0,0,1.4,1.8,1.4h10c0,0,2,0.2,2-1.4
								s0.1-11.7,0-12.2c-0.1-0.8-0.7-1.4-1.5-1.4h-12.3"/>
						</g>
					</g>
				</g>
			</g>
			<circle id="타원_585" class="st3" cx="-1454" cy="-358" r="7"/>
			<g id="Add_Recipe" transform="translate(13.48 13.48)">
				<path id="선_394" class="st4" d="M-1472-371.5h9"/>
				<path id="선_395" class="st4" d="M-1467.5-376v9"/>
			</g>
		</g>
	</g>
</g>
</svg>
