<?xml version="1.0" encoding="utf-8"?>
<!-- Generator: Adobe Illustrator 26.0.1, SVG Export Plug-In . SVG Version: 6.00 Build 0)  -->
<svg version="1.0" id="레이어_1" xmlns="http://www.w3.org/2000/svg" xmlns:xlink="http://www.w3.org/1999/xlink" x="0px"
	 y="0px" viewBox="0 0 30 30" style="enable-background:new 0 0 30 30;" xml:space="preserve">
<style type="text/css">
	.st0{fill:#FFFFFF;}
	.st1{fill:none;stroke:#ABCBF5;}
	.st2{fill:#C8E0FF;}
	.st3{fill:#4A98FF;}
</style>
<g id="타원_685">
	<circle class="st0" cx="15" cy="15" r="15"/>
	<circle class="st1" cx="15" cy="15" r="14.5"/>
</g>
<g id="다각형_120">
	<path class="st2" d="M10.5,20.3V9.7c0-0.2,0.1-0.3,0.3-0.4c0.2-0.1,0.3-0.1,0.5,0l9,5.3c0.2,0.1,0.2,0.3,0.2,0.4
		c0,0.1,0,0.3-0.2,0.4l-9,5.3c-0.2,0.1-0.3,0.1-0.5,0C10.6,20.6,10.5,20.4,10.5,20.3z"/>
	<path class="st3" d="M20,15l-9-5.3v10.5L20,15 M21,15c0,0.4-0.2,0.7-0.5,0.9l-9,5.3c-0.5,0.3-1.1,0.1-1.4-0.4
		C10,20.6,10,20.4,10,20.3V9.7c0-0.6,0.4-1,1-1c0.2,0,0.4,0,0.5,0.1l9,5.3C20.8,14.3,21,14.6,21,15z"/>
</g>
</svg>
