<?xml version="1.0" encoding="utf-8"?>
<!-- Generator: Adobe Illustrator 26.0.1, SVG Export Plug-In . SVG Version: 6.00 Build 0)  -->
<svg version="1.0" id="레이어_1" xmlns="http://www.w3.org/2000/svg" xmlns:xlink="http://www.w3.org/1999/xlink" x="0px"
	 y="0px" viewBox="0 0 34 32" style="enable-background:new 0 0 34 32;" xml:space="preserve">
<style type="text/css">
	.st0{fill:#FFFFFF;}
	.st1{fill:none;stroke:#000000;stroke-width:1.6;}
</style>
<g id="마스크_그룹_385" transform="translate(0 156)">
	<g id="add_Group" transform="translate(1536.5 384)">
		<g id="icon-Folder" transform="translate(-4.5)">
			<g id="Line">
				<path id="folder-line" d="M-1508.1-519v-7.7c0-0.6-0.5-1.1-1-1.1c0,0,0,0,0,0h-7.7c-0.6,0-1.1-0.5-1.1-1c0,0,0,0,0,0v-0.7
					c0-0.6-0.5-1.1-1-1.1c0,0,0,0,0,0h-3.5c-0.6,0-1.1,0.5-1.1,1c0,0,0,0,0,0v10.6c0,0.6,0.5,1.1,1,1.1c0,0,0,0,0,0h13.4
					C-1508.6-517.9-1508.1-518.4-1508.1-519C-1508.1-519-1508.1-519-1508.1-519L-1508.1-519z M-1506.7-526.7v7.7
					c0,1.4-1.1,2.5-2.5,2.5h-13.4c-0.7,0-1.3-0.3-1.7-0.7c-0.5-0.5-0.7-1.1-0.7-1.7v-10.5c0-0.7,0.3-1.3,0.7-1.7
					c0.5-0.5,1.1-0.7,1.7-0.7h3.5c0.7,0,1.3,0.3,1.7,0.7c0.5,0.5,0.7,1.1,0.7,1.7v0.4h7.4c0.7,0,1.3,0.3,1.7,0.7
					C-1507-528-1506.7-527.4-1506.7-526.7L-1506.7-526.7z"/>
			</g>
		</g>
		<path id="사각형_14566" class="st0" d="M-1521.5-526.5h13v13h-13V-526.5z"/>
		<path id="선_505" class="st1" d="M-1520.4-520h11.4"/>
		<path id="선_506" class="st1" d="M-1514.6-525.7v11.4"/>
	</g>
</g>
</svg>
