<?xml version="1.0" encoding="utf-8"?>
<!-- Generator: Adobe Illustrator 26.0.1, SVG Export Plug-In . SVG Version: 6.00 Build 0)  -->
<svg version="1.0" id="레이어_1" xmlns="http://www.w3.org/2000/svg" xmlns:xlink="http://www.w3.org/1999/xlink" x="0px"
	 y="0px" viewBox="0 0 30 30" style="enable-background:new 0 0 30 30;" xml:space="preserve">
<style type="text/css">
	.st0{fill:#FFFFFF;}
	.st1{fill:none;stroke:#ABCBF5;}
	.st2{fill-rule:evenodd;clip-rule:evenodd;fill:#4A98FF;stroke:#4A98FF;stroke-width:0.5;}
</style>
<circle class="st0" cx="15" cy="15" r="15"/>
<circle class="st1" cx="15" cy="15" r="14.5"/>
<g id="arrow-clockwise" transform="translate(601.163 790.425)">
	<path id="패스_2453" class="st2" d="M-590.9-776.1c0.7-2.6,3.4-4.1,6-3.4c0.3,0.1,0.6,0.2,1,0.4c0.2,0.1,0.5,0,0.7-0.2
		s0-0.5-0.2-0.7c-2.9-1.5-6.4-0.3-7.9,2.5c-1.5,2.9-0.3,6.4,2.5,7.9c2.9,1.5,6.4,0.3,7.9-2.5c0.8-1.6,0.9-3.5,0.1-5.1
		c-0.1-0.2-0.4-0.3-0.7-0.2c-0.2,0.1-0.3,0.4-0.2,0.6c1.1,2.4,0,5.3-2.4,6.4c-2.4,1.1-5.3,0-6.4-2.4
		C-591.1-773.9-591.2-775-590.9-776.1L-590.9-776.1z"/>
	<path id="패스_2454" class="st2" d="M-585.2-782.8c0.2-0.1,0.5,0,0.7,0.2l1.7,2.9c0.1,0.2,0.1,0.5-0.1,0.6c0,0,0,0,0,0l-3,1.5
		c-0.2,0.1-0.5,0-0.7-0.2c-0.1-0.2-0.1-0.5,0.1-0.6c0,0,0,0,0,0l2.6-1.3l-1.5-2.5C-585.5-782.4-585.4-782.7-585.2-782.8
		C-585.2-782.8-585.2-782.8-585.2-782.8z"/>
</g>
</svg>
