<?xml version="1.0" encoding="utf-8"?>
<!-- Generator: Adobe Illustrator 26.0.1, SVG Export Plug-In . SVG Version: 6.00 Build 0)  -->
<svg version="1.0" id="레이어_1" xmlns="http://www.w3.org/2000/svg" xmlns:xlink="http://www.w3.org/1999/xlink" x="0px"
	 y="0px" viewBox="0 0 26 26" style="enable-background:new 0 0 26 26;" xml:space="preserve">
<style type="text/css">
	.st0{fill:#1C67FF;}
</style>
<g transform="translate(-1858 -964.488)">
	<g>
		<path class="st0" d="M1870.3,982.5c1.3,0,2.5-0.4,3.5-1.2l3.2,3.2l1-1l-3.2-3.2c1.9-2.5,1.5-6.1-1-8.1c-2.5-1.9-6.1-1.5-8.1,1
			c-1.9,2.5-1.5,6.1,1,8.1C1867.8,982.1,1869,982.5,1870.3,982.5L1870.3,982.5z M1870.3,972.4c2.4,0,4.3,1.9,4.3,4.3
			c0,2.4-1.9,4.3-4.3,4.3s-4.3-1.9-4.3-4.3c0,0,0,0,0,0C1866,974.4,1867.9,972.4,1870.3,972.4L1870.3,972.4z"/>
	</g>
</g>
</svg>
