<?xml version="1.0" encoding="utf-8"?>
<!-- Generator: Adobe Illustrator 26.0.1, SVG Export Plug-In . SVG Version: 6.00 Build 0)  -->
<svg version="1.0" id="레이어_1" xmlns="http://www.w3.org/2000/svg" xmlns:xlink="http://www.w3.org/1999/xlink" x="0px"
	 y="0px" viewBox="0 0 34 32" style="enable-background:new 0 0 34 32;" xml:space="preserve">
<g>
	<path d="M24.5,16.5v-1l1.3-1.1c0.5-0.4,0.6-1.1,0.3-1.7L24.5,10c-0.2-0.4-0.7-0.7-1.2-0.7c-0.1,0-0.3,0-0.4,0.1L21.2,10
		c-0.3-0.2-0.6-0.4-0.9-0.5l-0.3-1.7c-0.1-0.6-0.7-1.1-1.4-1.1h-3.2c-0.7,0-1.2,0.4-1.4,1.1l-0.3,1.7c-0.3,0.1-0.6,0.3-0.9,0.5
		l-1.6-0.6c-0.1,0-0.3,0-0.4,0c-0.5,0-0.9,0.3-1.2,0.7l-1.6,2.7c-0.3,0.6-0.2,1.3,0.3,1.7l1.3,1.2v1l-1.3,1.1
		c-0.5,0.4-0.6,1.1-0.3,1.7L9.5,22c0.2,0.4,0.7,0.7,1.2,0.7c0.1,0,0.3,0,0.4-0.1l1.7-0.5c0.3,0.2,0.6,0.4,0.9,0.5l0.3,1.7
		c0.1,0.6,0.7,1.1,1.4,1.1h3.2c0.7,0,1.2-0.4,1.4-1.1l0.3-1.7c0.3-0.1,0.6-0.3,0.9-0.5l1.7,0.5c0.1,0,0.3,0.1,0.4,0.1
		c0.5,0,0.9-0.3,1.2-0.7l1.6-2.7c0.3-0.6,0.2-1.3-0.3-1.7L24.5,16.5z M23.3,21.3L21,20.6c-0.6,0.5-1.2,0.8-1.9,1L18.6,24h-3.2
		l-0.5-2.4c-0.7-0.2-1.3-0.6-1.8-1l-2.4,0.7l-1.6-2.7l1.9-1.6c-0.1-0.7-0.1-1.4,0-2.1l-1.9-1.6l1.6-2.7l2.3,0.8
		c0.6-0.5,1.2-0.8,1.9-1L15.4,8h3.2l0.5,2.4c0.7,0.2,1.3,0.6,1.8,1l2.4-0.7l1.6,2.7l-1.9,1.6c0.1,0.7,0.1,1.4,0,2.1l1.9,1.6
		L23.3,21.3z"/>
	<path d="M17,20c-2.2,0-3.9-1.8-3.9-4s1.8-3.9,4-3.9s3.9,1.8,3.9,4c0,1-0.4,2-1.2,2.7C19.1,19.6,18.1,20,17,20z M17,13.3
		c-1.4,0-2.6,1.2-2.5,2.7s1.2,2.6,2.7,2.5s2.6-1.2,2.5-2.7c0-0.7-0.3-1.3-0.8-1.8C18.4,13.6,17.7,13.3,17,13.3z"/>
</g>
</svg>
