<?xml version="1.0" encoding="utf-8"?>
<!-- Generator: Adobe Illustrator 26.0.1, SVG Export Plug-In . SVG Version: 6.00 Build 0)  -->
<svg version="1.0" id="레이어_1" xmlns="http://www.w3.org/2000/svg" xmlns:xlink="http://www.w3.org/1999/xlink" x="0px"
	 y="0px" viewBox="0 0 30 30" style="enable-background:new 0 0 30 30;" xml:space="preserve">
<style type="text/css">
	.st0{fill:#FFFFFF;}
	.st1{fill:none;stroke:#E2E2E2;}
	.st2{fill:none;stroke:#000000;}
</style>
<g id="그룹_6587" transform="translate(-37 -681)">
	<g id="사각형_15662" transform="translate(852 947)">
		<path class="st0" d="M-813-266h26c1.1,0,2,0.9,2,2v26c0,1.1-0.9,2-2,2h-26c-1.1,0-2-0.9-2-2v-26C-815-265.1-814.1-266-813-266z"/>
		<path class="st1" d="M-813-265.5h26c0.8,0,1.5,0.7,1.5,1.5v26c0,0.8-0.7,1.5-1.5,1.5h-26c-0.8,0-1.5-0.7-1.5-1.5v-26
			C-814.5-264.8-813.8-265.5-813-265.5z"/>
	</g>
	<g id="그룹_6584" transform="translate(-853 133)">
		<g id="사각형_15405" transform="translate(1716 822)">
			<path class="st0" d="M-814-266h7c0.6,0,1,0.4,1,1v7c0,0.6-0.4,1-1,1h-7c-0.6,0-1-0.4-1-1v-7C-815-265.6-814.6-266-814-266z"/>
			<path class="st2" d="M-814-265.5h7c0.3,0,0.5,0.2,0.5,0.5v7c0,0.3-0.2,0.5-0.5,0.5h-7c-0.3,0-0.5-0.2-0.5-0.5v-7
				C-814.5-265.3-814.3-265.5-814-265.5z"/>
		</g>
		<g id="그룹_6473" transform="translate(1711 826.45)">
			<circle id="타원_642" class="st0" cx="-810" cy="-260.5" r="5"/>
			<path id="다각형_2" class="st0" d="M-801.9-265c0.3-0.5,0.9-0.6,1.4-0.3c0.1,0.1,0.3,0.2,0.3,0.3l4.2,7.1
				c0.3,0.5,0.1,1.1-0.3,1.4c-0.2,0.1-0.3,0.1-0.5,0.1h-8.5c-0.6,0-1-0.4-1-1c0-0.2,0-0.4,0.1-0.5L-801.9-265z"/>
		</g>
		<g id="타원_641" transform="translate(1711 828)">
			<circle class="st0" cx="-810.5" cy="-261.5" r="4.5"/>
			<circle class="st2" cx="-810.5" cy="-261.5" r="4"/>
		</g>
		<g id="다각형_1">
			<path class="st0" d="M913.2,569.5h-6.4c-0.3,0-0.4-0.2-0.4-0.3c0-0.1-0.1-0.3,0-0.5l3.2-5.1c0.1-0.2,0.3-0.2,0.4-0.2
				c0.1,0,0.3,0,0.4,0.2l3.2,5.1c0.1,0.2,0.1,0.4,0,0.5C913.6,569.3,913.5,569.5,913.2,569.5z"/>
			<path d="M910,563.9l-3.2,5.1h6.4L910,563.9 M910,562.9c0.3,0,0.7,0.2,0.8,0.5l3.2,5.1c0.4,0.7-0.1,1.5-0.8,1.5h-6.4
				c-0.8,0-1.3-0.9-0.8-1.5l3.2-5.1C909.3,563,909.7,562.9,910,562.9z"/>
		</g>
	</g>
</g>
</svg>
