<?xml version="1.0" encoding="utf-8"?>
<!-- Generator: Adobe Illustrator 26.0.1, SVG Export Plug-In . SVG Version: 6.00 Build 0)  -->
<svg version="1.0" id="레이어_1" xmlns="http://www.w3.org/2000/svg" xmlns:xlink="http://www.w3.org/1999/xlink" x="0px"
	 y="0px" viewBox="0 0 30 30" style="enable-background:new 0 0 30 30;" xml:space="preserve">
<style type="text/css">
	.st0{fill:none;}
	.st1{fill:#FFFFFF;}
	.st2{fill:none;stroke:#E2E2E2;}
</style>
<rect y="0" class="st0" width="30" height="30"/>
<g id="사각형_15662" transform="translate(852 947)">
	<path class="st1" d="M-850-947h26c1.1,0,2,0.9,2,2v26c0,1.1-0.9,2-2,2h-26c-1.1,0-2-0.9-2-2v-26C-852-946.1-851.1-947-850-947z"/>
	<path class="st2" d="M-850-946.5h26c0.8,0,1.5,0.7,1.5,1.5v26c0,0.8-0.7,1.5-1.5,1.5h-26c-0.8,0-1.5-0.7-1.5-1.5v-26
		C-851.5-945.8-850.8-946.5-850-946.5z"/>
</g>
<g>
	<path d="M16,9c-0.1,1-0.1,2-0.1,3.1v5.5c0,2.1,0.1,3.2,0.2,3.4c0.1,0.2,0.5,0.3,1.1,0.3h0.7v0.6c-1.1,0-2.1-0.1-2.9-0.1
		c-0.8,0-1.8,0-2.9,0.1v-0.6h0.8c0.4,0,0.7-0.1,0.8-0.2c0.1-0.1,0.2-0.3,0.2-0.7c0.1-0.8,0.1-1.7,0.1-2.9V12c0-1.1,0-2.1-0.1-3h-1
		c-1.6,0-2.5,0-2.6,0.1c-0.2,0.1-0.3,0.4-0.3,0.9l-0.1,1.3H9.3l0-1.2c0-0.5,0-1.1-0.1-2c3.5,0,5.6,0.1,6.2,0.1l5.4-0.1
		c-0.1,1.1-0.2,2.2-0.2,3.2h-0.6L19.9,10c0-0.4-0.1-0.7-0.2-0.8c-0.1-0.1-0.2-0.1-0.5-0.2C18.5,9,17.7,9,16.8,9H16z"/>
</g>
</svg>
