<?xml version="1.0" encoding="utf-8"?>
<!-- Generator: Adobe Illustrator 26.0.1, SVG Export Plug-In . SVG Version: 6.00 Build 0)  -->
<svg version="1.0" id="레이어_1" xmlns="http://www.w3.org/2000/svg" xmlns:xlink="http://www.w3.org/1999/xlink" x="0px"
	 y="0px" viewBox="0 0 30 30" style="enable-background:new 0 0 30 30;" xml:space="preserve">
<style type="text/css">
	.st0{fill:#FFFFFF;}
	.st1{fill:none;stroke:#ABCBF5;}
	.st2{fill:#C8E0FF;}
	.st3{fill:none;stroke:#4A98FF;}
</style>
<circle class="st0" cx="15" cy="15" r="15"/>
<circle class="st1" cx="15" cy="15" r="14.5"/>
<g id="사각형_16186" transform="translate(1098 248)">
	<path class="st2" d="M-1088-239l10,0.1c0.6,0,1,0.5,1,1l-0.1,10c0,0.6-0.5,1-1,1l-10-0.1c-0.6,0-1-0.5-1-1l0.1-10
		C-1089-238.6-1088.5-239-1088-239z"/>
	<path class="st3" d="M-1088-238.5l10,0.1c0.3,0,0.5,0.2,0.5,0.5l-0.1,10c0,0.3-0.2,0.5-0.5,0.5l-10-0.1c-0.3,0-0.5-0.2-0.5-0.5
		l0.1-10C-1088.5-238.3-1088.2-238.5-1088-238.5z"/>
</g>
</svg>
