<?xml version="1.0" encoding="utf-8"?>
<!-- Generator: Adobe Illustrator 26.0.1, SVG Export Plug-In . SVG Version: 6.00 Build 0)  -->
<svg version="1.0" id="레이어_1" xmlns="http://www.w3.org/2000/svg" xmlns:xlink="http://www.w3.org/1999/xlink" x="0px"
	 y="0px" viewBox="0 0 30 30" style="enable-background:new 0 0 30 30;" xml:space="preserve">
<style type="text/css">
	.st0{fill:#FFFFFF;}
	.st1{fill:none;stroke:#ABCBF5;}
	.st2{fill:#C8E0FF;stroke:#4A98FF;stroke-width:1.5;}
</style>
<g>
	<circle class="st0" cx="15" cy="15" r="15"/>
	<circle class="st1" cx="15" cy="15" r="14.5"/>
</g>
<path class="st2" d="M21.2,16.9l-0.9-2l0.9-1.8c0.1-0.3,0.1-0.6,0-0.8l-0.8-1.4c-0.2-0.3-0.4-0.4-0.7-0.5l-2-0.1l-1.1-1.7
	c-0.2-0.3-0.4-0.4-0.8-0.4h-1.6c-0.3,0-0.6,0.2-0.7,0.4l-1.1,1.7l-2,0.1c-0.3,0-0.6,0.2-0.7,0.5l-0.8,1.4c-0.1,0.3-0.2,0.6,0,0.8
	L9.8,15l-0.9,2c-0.1,0.3-0.1,0.6,0,0.8l0.8,1.5c0.1,0.3,0.4,0.5,0.8,0.5l2,0.1l1.1,1.6c0.2,0.2,0.4,0.4,0.7,0.4h1.6
	c0.3,0,0.6-0.2,0.7-0.4l1.1-1.6l2-0.1c0.3,0,0.6-0.2,0.7-0.5l0.8-1.5C21.3,17.5,21.3,17.2,21.2,16.9L21.2,16.9z M15,17.5
	c-1.4,0-2.5-1.1-2.5-2.5s1.1-2.5,2.5-2.5c1.4,0,2.5,1.1,2.5,2.5C17.5,16.4,16.4,17.5,15,17.5z"/>
</svg>
