<?xml version="1.0" encoding="utf-8"?>
<!-- Generator: Adobe Illustrator 26.0.0, SVG Export Plug-In . SVG Version: 6.00 Build 0)  -->
<svg version="1.0" id="레이어_1" xmlns="http://www.w3.org/2000/svg" xmlns:xlink="http://www.w3.org/1999/xlink" x="0px"
	 y="0px" viewBox="0 0 24 24" style="enable-background:new 0 0 24 24;" xml:space="preserve">
<style type="text/css">
	.st0{fill:none;}
	.st1{fill:none;stroke:#656565;stroke-width:1.5;}
	.st2{fill:#656565;}
	.st3{font-family:'MalgunGothicBold';}
	.st4{font-size:7px;}
</style>
<rect y="0" class="st0" width="24" height="24"/>
<g transform="translate(-267 -229)">
	<g transform="translate(271 233)">
		<path class="st0" d="M2,0h12c1.1,0,2,0.9,2,2v12c0,1.1-0.9,2-2,2H2c-1.1,0-2-0.9-2-2V2C0,0.9,0.9,0,2,0z"/>
		<path class="st1" d="M2,0.8h12c0.7,0,1.2,0.6,1.2,1.2v12c0,0.7-0.6,1.2-1.2,1.2H2c-0.7,0-1.2-0.6-1.2-1.2V2C0.8,1.3,1.3,0.8,2,0.8
			z"/>
	</g>
	<text transform="matrix(1 0 0 1 274 244)" class="st2 st3 st4">1:1</text>
</g>
</svg>
