<?xml version="1.0" encoding="utf-8"?>
<!-- Generator: Adobe Illustrator 26.0.1, SVG Export Plug-In . SVG Version: 6.00 Build 0)  -->
<svg version="1.1" id="레이어_1" xmlns="http://www.w3.org/2000/svg" xmlns:xlink="http://www.w3.org/1999/xlink" x="0px"
	 y="0px" viewBox="0 0 40 31" style="enable-background:new 0 0 40 31;" xml:space="preserve">
<style type="text/css">
	.st0{fill:none;}
	.st1{fill:#4B515A;}
	.st2{fill:#FFFFFF;}
	.st3{fill:none;stroke:#FF7D26;stroke-linecap:round;stroke-linejoin:round;}
</style>
<rect y="0" class="st0" width="40" height="38"/>
<g transform="translate(-495 -456)">
	<g>
		<g transform="translate(-1382 98) translate(1877 358)">
			<path class="st1" d="M16,0h8c6.1,0,11,4.9,11,11v9c0,6.1-4.9,11-11,11h-8C9.9,31,5,26.1,5,20v-9C5,4.9,9.9,0,16,0z"/>
		</g>
		<g>
			<g>
				<path class="st0" d="M515,462.4c5,0,9.1,4.1,9.1,9.1s-4.1,9.1-9.1,9.1s-9.1-4.1-9.1-9.1S509.9,462.4,515,462.4L515,462.4z"/>
				<path class="st2" d="M515,463.4c-4.5,0-8.1,3.6-8.1,8.1s3.6,8.1,8.1,8.1s8.1-3.6,8.1-8.1S519.4,463.4,515,463.4 M515,462.4
					c5,0,9.1,4.1,9.1,9.1s-4.1,9.1-9.1,9.1s-9.1-4.1-9.1-9.1S509.9,462.4,515,462.4z"/>
			</g>
			<path class="st3" d="M515.3,465.6v6h-4.1"/>
		</g>
	</g>
</g>
</svg>
