<?xml version="1.0" encoding="utf-8"?>
<!-- Generator: Adobe Illustrator 26.0.1, SVG Export Plug-In . SVG Version: 6.00 Build 0)  -->
<svg version="1.1" id="레이어_1" xmlns="http://www.w3.org/2000/svg" xmlns:xlink="http://www.w3.org/1999/xlink" x="0px"
	 y="0px" viewBox="0 0 40 31" style="enable-background:new 0 0 40 31;" xml:space="preserve">
<style type="text/css">
	.st0{fill:none;}
	.st1{fill:#363A40;}
	.st2{fill:none;stroke:#FBFBFB;stroke-linecap:round;stroke-linejoin:round;}
</style>
<rect y="0" class="st0" width="40" height="38"/>
<g id="panel_tap_icon_layer_h" transform="translate(-458 -380)">
	<g transform="translate(458 380)">
		<path id="사각형_7505-2" class="st1" d="M16,0h8c6.1,0,11,4.9,11,11v9c0,6.1-4.9,11-11,11h-8C9.9,31,5,26.1,5,20v-9
			C5,4.9,9.9,0,16,0z"/>
	</g>
	<g id="그룹_1842" transform="translate(469.592 386.656)">
		<path id="패스_561" class="st2" d="M8.3,0L0,3.7l8.3,4.1l8.3-4.1L8.3,0z"/>
		<path id="패스_562" class="st2" d="M0,8.8l8.3,4l8.5-4"/>
		<path id="패스_563" class="st2" d="M0,13.7l8.3,4l8.5-4"/>
	</g>
</g>
</svg>
