<?xml version="1.0" encoding="utf-8"?>
<!-- Generator: Adobe Illustrator 26.0.1, SVG Export Plug-In . SVG Version: 6.00 Build 0)  -->
<svg version="1.1" id="레이어_1" xmlns="http://www.w3.org/2000/svg" xmlns:xlink="http://www.w3.org/1999/xlink" x="0px"
	 y="0px" viewBox="0 0 40 31" style="enable-background:new 0 0 40 31;" xml:space="preserve">
<style type="text/css">
	.st0{fill:none;}
	.st1{fill:#363A40;}
	.st2{fill:none;stroke:#FFFFFF;stroke-width:0.5;stroke-linecap:round;stroke-linejoin:round;}
	.st3{fill:none;stroke:#FFFFFF;stroke-linecap:round;stroke-linejoin:round;}
</style>
<rect y="0" class="st0" width="40" height="38"/>
<g transform="translate(-747 -338)">
	<g transform="translate(747 338)">
		<path class="st1" d="M16,0h8c6.1,0,11,4.9,11,11v9c0,6.1-4.9,11-11,11h-8C9.9,31,5,26.1,5,20v-9C5,4.9,9.9,0,16,0z"/>
	</g>
	<g>
		<path class="st0" d="M759.7,347H773c0.6,0,1,0.4,1,1v13.4c0,0.6-0.4,1-1,1h-13.3V347z"/>
		<g>
			<path class="st2" d="M762.6,347.1v5.6l1.2-1.8l1.3,1.8v-5.6"/>
			<path class="st3" d="M772.5,345h-10.9c-1.1,0.1-1.9,1-1.9,2v14c0,0,0,1.5,1.9,1.5H772c0,0,2,0.3,2.1-1.5s0.1-12.1,0-12.6
				c-0.1-0.8-0.7-1.4-1.5-1.4h-12.8"/>
		</g>
	</g>
</g>
</svg>
