<?xml version="1.0" encoding="utf-8"?>
<!-- Generator: Adobe Illustrator 26.0.1, SVG Export Plug-In . SVG Version: 6.00 Build 0)  -->
<svg version="1.1" id="레이어_1" xmlns="http://www.w3.org/2000/svg" xmlns:xlink="http://www.w3.org/1999/xlink" x="0px"
	 y="0px" viewBox="0 0 40 31" style="enable-background:new 0 0 40 31;" xml:space="preserve">
<style type="text/css">
	.st0{fill:none;}
	.st1{fill:#4B515A;}
	.st2{fill:#FF7D26;}
	.st3{fill:none;stroke:#FFFFFF;stroke-linecap:round;stroke-linejoin:round;}
</style>
<rect y="0" class="st0" width="40" height="38"/>
<g id="panel_tap_icon_page_s" transform="translate(-679 -478)">
	<g transform="translate(679 478)">
		<path id="사각형_7572-2" class="st1" d="M16,0h8c6.1,0,11,4.9,11,11v9c0,6.1-4.9,11-11,11h-8C9.9,31,5,26.1,5,20v-9
			C5,4.9,9.9,0,16,0z"/>
	</g>
	<path id="패스_1631" class="st2" d="M701.2,485.1l-0.2,5.4l5.5-0.1L701.2,485.1z"/>
	<g id="그룹_2398" transform="translate(692 485)">
		<path id="패스_1621" class="st3" d="M9.7,0H0v16.6h14.5V4.9L9.7,0z"/>
		<path id="패스_1622" class="st3" d="M8.8,0v5.6h5.5"/>
	</g>
</g>
</svg>
