<?xml version="1.0" encoding="utf-8"?>
<!-- Generator: Adobe Illustrator 26.0.1, SVG Export Plug-In . SVG Version: 6.00 Build 0)  -->
<svg version="1.1" id="레이어_1" xmlns="http://www.w3.org/2000/svg" xmlns:xlink="http://www.w3.org/1999/xlink" x="0px"
	 y="0px" viewBox="0 0 40 31" style="enable-background:new 0 0 40 31;" xml:space="preserve">
<style type="text/css">
	.st0{fill:none;}
	.st1{fill:#4B515A;}
	.st2{fill:none;stroke:#FFFFFF;}
	.st3{fill:#FF7D26;}
</style>
<rect y="0" class="st0" width="40" height="38"/>
<g id="panel_tap_icon_project_s" transform="translate(-608 -478)">
	<g transform="translate(608 478)">
		<path id="사각형_7575-2" class="st1" d="M16,0h8c6.1,0,11,4.9,11,11v9c0,6.1-4.9,11-11,11h-8C9.9,31,5,26.1,5,20v-9
			C5,4.9,9.9,0,16,0z"/>
	</g>
	<g id="사각형_7576" transform="translate(620 484)">
		<path class="st0" d="M1,0h14c0.6,0,1,0.4,1,1v16c0,0.6-0.4,1-1,1H1c-0.6,0-1-0.4-1-1V1C0,0.4,0.4,0,1,0z"/>
		<path class="st2" d="M1,0.5h14c0.3,0,0.5,0.2,0.5,0.5v16c0,0.3-0.2,0.5-0.5,0.5H1c-0.3,0-0.5-0.2-0.5-0.5V1C0.5,0.7,0.7,0.5,1,0.5
			z"/>
	</g>
	<g id="그룹_2400" transform="translate(22 209)">
		<circle id="타원_1" class="st3" cx="601.5" cy="287.5" r="0.5"/>
		<circle id="타원_2" class="st3" cx="601.5" cy="283.5" r="0.5"/>
		<circle id="타원_3" class="st3" cx="601.5" cy="279.5" r="0.5"/>
		<path id="사각형_7539" class="st3" d="M604.5,279h6c0.3,0,0.5,0.2,0.5,0.5l0,0c0,0.3-0.2,0.5-0.5,0.5h-6
			c-0.3,0-0.5-0.2-0.5-0.5l0,0C604,279.2,604.2,279,604.5,279z"/>
		<path id="사각형_7540" class="st3" d="M604.5,283h6c0.3,0,0.5,0.2,0.5,0.5l0,0c0,0.3-0.2,0.5-0.5,0.5h-6
			c-0.3,0-0.5-0.2-0.5-0.5l0,0C604,283.2,604.2,283,604.5,283z"/>
		<path id="사각형_7541" class="st3" d="M604.5,287h6c0.3,0,0.5,0.2,0.5,0.5l0,0c0,0.3-0.2,0.5-0.5,0.5h-6
			c-0.3,0-0.5-0.2-0.5-0.5l0,0C604,287.2,604.2,287,604.5,287z"/>
	</g>
</g>
</svg>
