<?xml version="1.0" encoding="utf-8"?>
<!-- Generator: Adobe Illustrator 26.0.1, SVG Export Plug-In . SVG Version: 6.00 Build 0)  -->
<svg version="1.1" id="레이어_1" xmlns="http://www.w3.org/2000/svg" xmlns:xlink="http://www.w3.org/1999/xlink" x="0px"
	 y="0px" viewBox="0 0 40 31" style="enable-background:new 0 0 40 31;" xml:space="preserve">
<style type="text/css">
	.st0{fill:none;}
	.st1{fill:#363A40;}
	.st2{fill:none;stroke:#FFFFFF;stroke-linecap:round;}
	.st3{fill:#FFFFFF;}
</style>
<rect y="0" class="st0" width="40" height="38"/>
<g id="panel_tap_icon_property_h" transform="translate(-180 -172)">
	<g transform="translate(180 172)">
		<path id="사각형_7484-2" class="st1" d="M16,0h8c6.1,0,11,4.9,11,11v9c0,6.1-4.9,11-11,11h-8C9.9,31,5,26.1,5,20v-9
			C5,4.9,9.9,0,16,0z"/>
	</g>
	<g id="그룹_2363" transform="translate(-1698.416 -65.5)">
		<path id="선_390" class="st2" d="M1890,247h16.8"/>
		<path id="선_391" class="st2" d="M1890,253h16.8"/>
		<path id="선_392" class="st2" d="M1890,259h16.8"/>
		<g id="패스_1582">
			<path class="st1" d="M1894.7,249.5c-1.4,0-2.5-1.1-2.5-2.5s1.1-2.5,2.5-2.5s2.5,1.1,2.5,2.5S1896.1,249.5,1894.7,249.5z"/>
			<path class="st3" d="M1894.7,245c-1.1,0-2,0.9-2,2s0.9,2,2,2s2-0.9,2-2S1895.8,245,1894.7,245 M1894.7,244c1.7,0,3,1.3,3,3
				s-1.3,3-3,3s-3-1.3-3-3S1893,244,1894.7,244z"/>
		</g>
		<g id="패스_1583">
			<path class="st1" d="M1894.7,261.5c-1.4,0-2.5-1.1-2.5-2.5s1.1-2.5,2.5-2.5s2.5,1.1,2.5,2.5S1896.1,261.5,1894.7,261.5z"/>
			<path class="st3" d="M1894.7,257c-1.1,0-2,0.9-2,2s0.9,2,2,2s2-0.9,2-2S1895.8,257,1894.7,257 M1894.7,256c1.7,0,3,1.3,3,3
				s-1.3,3-3,3s-3-1.3-3-3S1893,256,1894.7,256z"/>
		</g>
		<g id="패스_1584">
			<path class="st1" d="M1901.9,255.5c-1.4,0-2.5-1.1-2.5-2.5s1.1-2.5,2.5-2.5s2.5,1.1,2.5,2.5S1903.3,255.5,1901.9,255.5z"/>
			<path class="st3" d="M1901.9,251c-1.1,0-2,0.9-2,2s0.9,2,2,2s2-0.9,2-2S1903,251,1901.9,251 M1901.9,250c1.7,0,3,1.3,3,3
				s-1.3,3-3,3s-3-1.3-3-3S1900.2,250,1901.9,250z"/>
		</g>
	</g>
</g>
</svg>
